<svg xmlns="http://www.w3.org/2000/svg" viewBox="0 0 400 632.97"><g id="Capa_1" data-name="Capa 1"><rect width="400" height="400" style="fill:#123740"/></g><g id="Capa_2" data-name="Capa 2"><path d="M228.82,195.34c-14.54-6-19-28.56-10-50.47S246.86,110.05,261.4,116s19,28.55,10,50.46S243.33,201.31,228.82,195.34Z" style="fill:#383838"/><path d="M261.51,344A244.48,244.48,0,0,0,245,304.07l.11-.06s38.66,26.31,88.05-25.87c0,0-12.32-26.89,9.51-37.21,7.09-3.34,15.71-2.5,21.19,3.12,3.64,3.69,6.3,9.66,4.73,19.16,0,0-4,18.16-22.83,19.66,0,0-31.46,66.32-84.22,61.12Z" style="fill:#37f265"/><path d="M198.89,291.61a143.36,143.36,0,0,0,29.93-14.35A244.59,244.59,0,0,1,245,304.07,244.48,244.48,0,0,1,261.51,344h0c15.71,49.78,11.11,88.85,11.11,88.85a74,74,0,0,1-2.9,12.89c-5.86,19-23.14,52.08-71.9,51.43-46-.63-63.33-31.3-69.74-51.23v0a80.92,80.92,0,0,1-3.67-16.79c-4.82-25.82,4.05-60.84,14.79-90.76,5.5-15.28,11.5-29.25,16.4-39.92l0,0C161.6,285.45,166,277.26,166,277.26,184.24,288.87,198.89,291.61,198.89,291.61Z" style="fill:#37f265"/><path d="M129.37,166.48c9,21.9,28.06,34.83,42.58,28.86s19-28.56,10-50.47-28-34.82-42.58-28.85S120.36,144.57,129.37,166.48ZM197.85,9.18c117.22,0,103.22,131.42,103.22,131.42s-1.28,91.76-72.25,136.66a143.36,143.36,0,0,1-29.93,14.35s-14.65-2.74-32.91-14.35C139.12,260.15,104.42,223.9,97,149,97,149,80.66,9.18,197.85,9.18ZM261.4,116c-14.54-6-33.6,7-42.61,28.85s-4.51,44.5,10,50.47,33.56-7,42.57-28.86S275.91,122,261.4,116Z" style="fill:#37f265"/><path d="M172,195.34c-14.52,6-33.6-7-42.58-28.86s-4.52-44.5,10-50.46,33.6,7,42.58,28.85S186.46,189.37,172,195.34Z" style="fill:#383838"/><path d="M135.61,596.88c-21.22-16.62-7.77-148.43-7.5-150.95,6.41,19.93,23.77,50.6,69.74,51.23,48.76.65,66-32.45,71.9-51.43l.49.17s13.94,134.19-7.5,151c0,0,60.59,3.72,52.19,27-6.66,18.51-43.84,2.36-58.9-5.09a15,15,0,0,1-8-9.75c-6-23.16-27.73-100.29-50.21-95.83-18.95-.93-41.35,74.26-47.54,96.3a14.48,14.48,0,0,1-7.44,9c-14.71,7.31-52.71,24.07-59.45,5.34C75,600.6,135.61,596.88,135.61,596.88Z" style="fill:#37f265"/><path d="M67.57,272.5c48.66,51.39,86.88,26.69,88.06,25.93-4.9,10.67-10.9,24.64-16.4,39.92C86.46,343.6,55,277.26,55,277.26c-18.84-1.53-22.83-19.66-22.83-19.66-1.56-9.53,1.09-15.47,4.71-19.19,5.47-5.62,14.1-6.46,21.19-3.12C79.92,245.61,67.57,272.5,67.57,272.5Z" style="fill:#37f265"/><path d="M166,277.26C139.12,260.15,104.42,223.9,97,149,97,149,80.66,9.18,197.85,9.18S301.07,140.6,301.07,140.6s-1.28,91.76-72.25,136.66a143.36,143.36,0,0,1-29.93,14.35S184.24,288.87,166,277.26Z" style="fill:none;stroke:#000;stroke-miterlimit:10"/><path d="M181.94,144.87c9,21.91,4.52,44.5-10,50.47s-33.6-7-42.58-28.86-4.52-44.5,10-50.46S173,123,181.94,144.87Z" style="fill:none;stroke:#000;stroke-miterlimit:10"/><path d="M218.79,144.87c-9,21.91-4.51,44.5,10,50.47s33.56-7,42.57-28.86,4.52-44.5-10-50.46S227.8,123,218.79,144.87Z" style="fill:none;stroke:#000;stroke-miterlimit:10"/><path d="M261.51,344A244.48,244.48,0,0,0,245,304.07a244.59,244.59,0,0,0-16.18-26.81" style="fill:none;stroke:#000;stroke-miterlimit:10"/><path d="M128.11,445.93c6.41,19.93,23.77,50.6,69.74,51.23,48.76.65,66-32.45,71.9-51.43a74,74,0,0,0,2.9-12.89s4.6-39.07-11.11-88.85" style="fill:none;stroke:#000;stroke-miterlimit:10"/><path d="M155.63,298.43c-4.9,10.67-10.9,24.64-16.4,39.92-10.74,29.92-19.61,64.94-14.79,90.76a80.92,80.92,0,0,0,3.67,16.79" style="fill:none;stroke:#000;stroke-miterlimit:10"/><path d="M166,277.26s-4.38,8.19-10.33,21.14" style="fill:none;stroke:#000;stroke-miterlimit:10"/><path d="M128.11,445.9v0c-.27,2.52-13.72,134.33,7.5,151,0,0-60.57,3.72-52.19,27,6.74,18.73,44.74,2,59.45-5.34a14.48,14.48,0,0,0,7.44-9c6.19-22,28.59-97.23,47.54-96.3a.62.62,0,0,1,.33,0" style="fill:none;stroke:#000;stroke-miterlimit:10"/><path d="M270.24,445.9s13.94,134.19-7.5,151c0,0,60.59,3.72,52.19,27-6.66,18.51-43.84,2.36-58.9-5.09a15,15,0,0,1-8-9.75c-6-23.16-27.73-100.29-50.21-95.83h-.08" style="fill:none;stroke:#000;stroke-miterlimit:10"/><path d="M155.65,298.4l0,0c-1.18.76-39.4,25.46-88.06-25.93,0,0,12.35-26.89-9.5-37.21-7.09-3.34-15.72-2.5-21.19,3.12-3.62,3.72-6.27,9.66-4.71,19.19,0,0,4,18.13,22.83,19.66,0,0,31.46,66.34,84.23,61.09" style="fill:none;stroke:#000;stroke-miterlimit:10"/><path d="M245.11,304s38.66,26.31,88.05-25.87c0,0-12.32-26.89,9.51-37.21,7.09-3.34,15.71-2.5,21.19,3.12,3.64,3.69,6.3,9.66,4.73,19.16,0,0-4,18.16-22.83,19.66,0,0-31.46,66.32-84.22,61.12h0" style="fill:none;stroke:#000;stroke-miterlimit:10"/><path d="M140.27,126.12a18.3,18.3,0,0,0-4.6,18.85,2.56,2.56,0,0,0,3.08,1.74,2.52,2.52,0,0,0,1.74-3.07,16.93,16.93,0,0,1-.55-2c0-.2-.07-.4-.11-.6s0-.31,0,0c0-.35-.07-.71-.08-1.08a15.44,15.44,0,0,1,0-2c0-.16,0-.32.05-.48-.05.46,0-.08,0-.17.07-.36.14-.71.22-1.07a16.33,16.33,0,0,1,.61-2s.19-.48.1-.26.18-.38.17-.37c.14-.29.28-.57.44-.85s.36-.63.56-.93l.27-.4c.08-.11.32-.44.11-.17a14.73,14.73,0,0,1,1.46-1.6,2.5,2.5,0,1,0-3.53-3.53Z" style="fill:#fff"/><path d="M255.55,129.28c.15.09.29.21.44.3.32.21-.42-.36.09.07.25.21.49.42.72.64s.46.46.67.7.23.28.35.41-.19-.29.07.09a14.84,14.84,0,0,1,1.08,1.74c.15.28.29.58.42.87-.14-.32,0-.1,0,.1s.13.34.18.51a14.06,14.06,0,0,1,.49,1.88s.11.66.05.31,0,.24,0,.31c0,.32.05.64.06,1s0,.71,0,1.07c0,.18,0,.36,0,.54s0,.19,0,0a16.79,16.79,0,0,1-.52,2.09,2.51,2.51,0,0,0,1.75,3.07,2.54,2.54,0,0,0,3.07-1.74A16.19,16.19,0,0,0,258.07,125a2.52,2.52,0,0,0-3.42.89,2.56,2.56,0,0,0,.9,3.43Z" style="fill:#fff"/><path d="M198.18,281.36c-15.67-2.43-66.26-38.22-66.26-38.22,7.47,20.34,51.59,43,63.9,49.33a13.42,13.42,0,0,1,3.38-.43c.18,0,.35,0,.53,0,1.19-.6,2.38-1.22,3.57-1.81a12.81,12.81,0,0,1,5-1.89,11.9,11.9,0,0,1,6.39-3.2,12.11,12.11,0,0,1,9.2-4,198.76,198.76,0,0,0,41.55-37.71S213.85,283.79,198.18,281.36Z" style="opacity:0.2"/><path d="M106.72,72.32s43.16-49.78,91.46-50.14,93.29,50.14,93.29,50.14-14.4-63.19-92.8-62.73S106.72,72.32,106.72,72.32Z" style="fill:#fff;opacity:0.18"/><path d="M262,351.43a63.51,63.51,0,0,0-2.21-8.36c-.85-2.63-1.61-5.27-2.43-7.91-.77-2.45-2.26-4.54-3.13-7a1.16,1.16,0,0,1,0-.8c-.6-1.56-1.3-3.07-2-4.59-.81-1.77-1.51-3.58-2.33-5.34-1.71-3.63-3.79-7.07-5.43-10.73a1.48,1.48,0,0,1-.08-.54c-.5-.94-1-1.89-1.54-2.8a47.54,47.54,0,0,1-2.83-6.2,32.67,32.67,0,0,0-2-3.87,21.82,21.82,0,0,0-1.53-1.92,1.48,1.48,0,0,1-.36-1.12c-1.43-2.13-3-4.19-4.4-6.27a1.4,1.4,0,0,1-.23-.54,14.14,14.14,0,0,1-1.25-2,13.2,13.2,0,0,1-1.23-1.85c-.15-.21-.33-.4-.46-.62a11.15,11.15,0,0,1-1.52.84,11.87,11.87,0,0,1-3.43,1.95,11.83,11.83,0,0,1-3.51,1.94,12.29,12.29,0,0,1-3.2,1.67,12.21,12.21,0,0,1-3.94,1.89c-.38.21-.75.42-1.16.6a12,12,0,0,1-2.92,1.26,12.08,12.08,0,0,1-2.78,1.13,13,13,0,0,1-3.49,1.36,1.59,1.59,0,0,1-.84.33l.09,0s0,0-.08,0l-.24.1a4.91,4.91,0,0,1-.5.17c-.34.08-.66.17-1,.27a4.11,4.11,0,0,1-2.38.13c-.35-.08-.68-.21-1-.29s-.76-.16-1.14-.26-.64-.18-.95-.29c-.05,0-.54-.16-.3-.11-.26-.06-.52-.06-.78-.12a1.13,1.13,0,0,1-.33-.16,13.06,13.06,0,0,1-2.92-1,12.73,12.73,0,0,1-3.44-1.21,12.76,12.76,0,0,1-1.78-.73,12.39,12.39,0,0,1-2.85-1.23,12.26,12.26,0,0,1-2.12-.93,12.08,12.08,0,0,1-3.34-1.43,11.81,11.81,0,0,1-2.39-1.33,11.71,11.71,0,0,1-2-1.12,11.59,11.59,0,0,1-3-1.63,1.31,1.31,0,0,1-.41-.26,1.21,1.21,0,0,1-.44-.27,1.17,1.17,0,0,1-.71-.4,13.12,13.12,0,0,1-1.31-.76,1.41,1.41,0,0,1-.26.5s0,0,0,.05a1.42,1.42,0,0,1-.39.78,1.38,1.38,0,0,1-.21.44,1.88,1.88,0,0,1-.14.24,1.38,1.38,0,0,1-.29.61,1.34,1.34,0,0,1-.25.37,1.27,1.27,0,0,1-.6.86,1.39,1.39,0,0,1-.31,1.09,25.47,25.47,0,0,0-3.08,5.84c-.68,1.56-1.45,3.06-2.22,4.56a1.62,1.62,0,0,1-.13.45c-1.73,3.34-2.73,7-4.44,10.34-.77,1.51-1.65,3-2.39,4.5a10.94,10.94,0,0,1-1,2.63,1.05,1.05,0,0,1-.55.51c-.12.42-.27.83-.36,1.26a1,1,0,0,1-.28.53,31.08,31.08,0,0,1-2.73,7.71c-.9,1.85-1.74,3.72-2.56,5.59a35.79,35.79,0,0,1-2.42,6.9q-.93,2.24-2,4.46c-.49,1.41-1,2.83-1.44,4.26-.7,2.14-1.18,4.77-2.37,6.8-.28.85-.55,1.7-.85,2.54,7.19-11.29,34.3-50.69,62.53-51.09C225,301.48,253,338.52,262,351.52A.28.28,0,0,0,262,351.43Z" style="fill:#fff;opacity:0.21"/><path d="M142.89,473.2s53.7,34.09,112.24,0c0,0-22.81,24.88-56.12,23S157.83,484.68,142.89,473.2Z" style="opacity:0.21"/><g style="opacity:0.38"><path d="M104.64,606c-5.64.75-12.37,1.67-16.14,6.45-3,3.79-3.87,10.18.26,13.53,1.24,1,3-.75,1.77-1.76-3.24-2.63-2.34-7.71.18-10.53,3.4-3.82,9.16-4.56,13.93-5.19a1.3,1.3,0,0,0,1.25-1.25c0-.61-.58-1.34-1.25-1.25Z" style="fill:#fff"/></g><g style="opacity:0.38"><path d="M292.87,608.5c4.77.63,10.53,1.37,13.93,5.19,2.52,2.82,3.42,7.9.18,10.53-1.25,1,.53,2.77,1.77,1.76,4.13-3.35,3.24-9.74.26-13.53-3.77-4.78-10.51-5.7-16.14-6.45-.67-.09-1.24.64-1.25,1.25a1.28,1.28,0,0,0,1.25,1.25Z" style="fill:#fff"/></g></g></svg>