<svg xmlns="http://www.w3.org/2000/svg" viewBox="0 0 1920 1172.96"><g id="Capa_1" data-name="Capa 1"><rect width="1920" height="1080" style="fill:#123740"/></g><g id="Capa_2" data-name="Capa 2"><path d="M983,299.5c16.13-39.21,50.25-62.35,76.23-51.67s34,51.14,18,90.35-50.25,62.36-76.23,51.67S966.84,338.72,983,299.5Z" style="fill:#383838"/><path d="M1030,584.42s69.26,47.11,157.7-46.37c0,0-22.06-48.14,17-66.62,12.7-6,28.14-4.47,37.94,5.58,6.52,6.67,11.23,17.31,8.48,34.37,0,0-7.15,32.45-40.88,35.2,0,0-56.33,118.78-150.84,109.36a445.72,445.72,0,0,0-29.56-71.42Z" style="fill:#37f265"/><path d="M1029.88,584.52a445.72,445.72,0,0,1,29.56,71.42c28.19,89.18,20,159.08,20,159.08a131.84,131.84,0,0,1-5.2,23.09c-10.49,34-41.42,93.24-128.73,92.07-82.36-1.13-113.39-56-124.86-91.73v0a144.46,144.46,0,0,1-6.57-30c-8.62-46.23,7.21-109,26.48-162.51,9.85-27.36,20.58-52.36,29.36-71.48l0,0c10.64-23.18,18.48-37.84,18.48-37.84,32.7,20.83,58.93,25.73,58.93,25.73a258.61,258.61,0,0,0,53.58-25.73A434.71,434.71,0,0,1,1029.88,584.52Z" style="fill:#37f265"/><path d="M917,299.5c-16.08-39.21-50.25-62.35-76.23-51.67s-34,51.14-17.94,90.35,50.25,62.36,76.28,51.67S933.11,338.72,917,299.5ZM945.46,56.55c209.87,0,184.82,235.31,184.82,235.31S1128,456.08,1000.91,536.48a258.61,258.61,0,0,1-53.58,25.73s-26.23-4.9-58.93-25.73c-48.09-30.59-110.2-95.55-123.58-229.62C764.82,306.86,735.65,56.55,945.46,56.55Zm113.73,191.28c-26-10.68-60.1,12.46-76.23,51.67s-8.08,79.67,17.95,90.35,60.1-12.45,76.23-51.67S1085.22,258.47,1059.19,247.83Z" style="fill:#37f265"/><path d="M840.75,247.83c26-10.68,60.15,12.46,76.23,51.67s8.09,79.67-17.89,90.35-60.15-12.45-76.28-51.67S814.77,258.47,840.75,247.83Z" style="fill:#383838"/><path d="M834,1108.76C796,1079,820.11,843,820.6,838.45c11.47,35.69,42.5,90.6,124.86,91.73,87.31,1.17,118.24-58.1,128.73-92.07l.89.3s25,240.3-13.44,270.35c0,0,108.44,6.67,93.44,48.39-11.91,33.09-78.53,4.21-105.49-9.17a26.87,26.87,0,0,1-14.22-17.45C1024.63,1089.06,985.71,951,945.46,959c-33.92-1.62-74.07,133-85.1,172.41A25.74,25.74,0,0,1,847,1147.54c-26.33,13.14-94.37,43.09-106.43,9.61C725.6,1115.43,834,1108.76,834,1108.76Z" style="fill:#37f265"/><path d="M712.21,528c87.12,92,155.55,47.74,157.66,46.37-8.78,19.12-19.51,44.12-29.36,71.48-94.47,9.41-150.8-109.37-150.8-109.37-33.77-2.7-40.88-35.2-40.88-35.2-2.8-17,2-27.7,8.43-34.32,9.81-10,25.25-11.56,37.94-5.58C734.32,479.81,712.21,528,712.21,528Z" style="fill:#37f265"/><path d="M888.4,536.48c-48.09-30.59-110.2-95.55-123.58-229.62,0,0-29.17-250.31,180.64-250.31s184.82,235.31,184.82,235.31S1128,456.08,1000.91,536.48a258.61,258.61,0,0,1-53.58,25.73S921.1,557.31,888.4,536.48Z" style="fill:none;stroke:#000;stroke-miterlimit:10"/><path d="M917,299.5c16.13,39.22,8.09,79.67-17.89,90.35s-60.15-12.45-76.28-51.67-8-79.71,17.94-90.35S900.9,260.29,917,299.5Z" style="fill:none;stroke:#000;stroke-miterlimit:10"/><path d="M983,299.5c-16.12,39.22-8.08,79.67,17.95,90.35s60.1-12.45,76.23-51.67,8.08-79.71-18-90.35S999.09,260.29,983,299.5Z" style="fill:none;stroke:#000;stroke-miterlimit:10"/><path d="M820.6,838.45c11.47,35.69,42.5,90.6,124.86,91.73,87.31,1.17,118.24-58.1,128.73-92.07a131.84,131.84,0,0,0,5.2-23.09s8.24-69.9-20-159.08a445.72,445.72,0,0,0-29.56-71.42,434.71,434.71,0,0,0-29-48" style="fill:none;stroke:#000;stroke-miterlimit:10"/><path d="M869.87,574.37c-8.78,19.12-19.51,44.12-29.36,71.48-19.27,53.53-35.1,116.28-26.48,162.51a144.46,144.46,0,0,0,6.57,30" style="fill:none;stroke:#000;stroke-miterlimit:10"/><path d="M888.4,536.48s-7.84,14.66-18.48,37.84" style="fill:none;stroke:#000;stroke-miterlimit:10"/><path d="M820.6,838.41v0C820.11,843,796,1079,834,1108.76c0,0-108.43,6.67-93.43,48.39,12.06,33.48,80.1,3.53,106.43-9.61a25.74,25.74,0,0,0,13.33-16.18c11-39.46,51.18-174,85.1-172.41a1.18,1.18,0,0,1,.59,0" style="fill:none;stroke:#000;stroke-miterlimit:10"/><path d="M1075.08,838.41s25,240.3-13.44,270.35c0,0,108.44,6.67,93.44,48.39-11.91,33.09-78.53,4.21-105.49-9.17a26.87,26.87,0,0,1-14.22-17.45C1024.63,1089.06,985.71,951,945.46,959h-.14" style="fill:none;stroke:#000;stroke-miterlimit:10"/><path d="M869.92,574.32l0,0C867.76,575.74,799.33,620,712.21,528c0,0,22.11-48.19-17-66.62-12.69-6-28.13-4.47-37.94,5.58-6.47,6.62-11.23,17.31-8.43,34.32,0,0,7.11,32.5,40.88,35.2,0,0,56.33,118.78,150.8,109.37" style="fill:none;stroke:#000;stroke-miterlimit:10"/><path d="M1030,584.42s69.26,47.11,157.7-46.37c0,0-22.06-48.14,17-66.62,12.7-6,28.14-4.47,37.94,5.58,6.52,6.67,11.23,17.31,8.48,34.37,0,0-7.15,32.45-40.88,35.2,0,0-56.33,118.78-150.84,109.36" style="fill:none;stroke:#000;stroke-miterlimit:10"/><path d="M843.76,267.29A30.78,30.78,0,0,0,836,299.12a2.58,2.58,0,0,0,3.08,1.75,2.53,2.53,0,0,0,1.74-3.08,25.81,25.81,0,0,1,6.44-27c2.34-2.22-1.2-5.75-3.54-3.54Z" style="fill:#fff"/><path d="M1049.75,269.84c7.87,5.26,11.25,15.86,8.25,24.75-1,3.05,3.79,4.36,4.82,1.33,3.74-11.08-.88-23.94-10.54-30.39-2.69-1.8-5.19,2.53-2.53,4.31Z" style="fill:#fff"/><path d="M946.06,543.84C918,539.5,827.41,475.42,827.41,475.42c13.38,36.4,92.37,77,114.41,88.3a24.77,24.77,0,0,1,6.06-.75c.33,0,.62,0,.94,0,2.13-1.08,4.26-2.19,6.41-3.24a22.83,22.83,0,0,1,8.91-3.39,21.21,21.21,0,0,1,11.43-5.72A21.68,21.68,0,0,1,992,543.43c46-31.1,74.39-67.51,74.39-67.51S974.11,548.19,946.06,543.84Z" style="opacity:0.2"/><path d="M782.3,169.58S859.57,80.46,946.06,79.8s167,89.78,167,89.78S1087.29,56.44,946.92,57.27,782.3,169.58,782.3,169.58Z" style="fill:#fff;opacity:0.18"/><path d="M1060.3,669.29a113.62,113.62,0,0,0-4-15c-1.52-4.71-2.88-9.44-4.36-14.16-1.37-4.39-4-8.13-5.6-12.44a2.09,2.09,0,0,1,0-1.44c-1.07-2.79-2.32-5.5-3.58-8.22-1.45-3.16-2.71-6.41-4.18-9.56-3.06-6.49-6.78-12.66-9.71-19.21a2.53,2.53,0,0,1-.15-1c-.9-1.7-1.78-3.4-2.76-5a83.22,83.22,0,0,1-5.06-11.08,60.17,60.17,0,0,0-3.51-6.94,41.74,41.74,0,0,0-2.74-3.44,2.61,2.61,0,0,1-.65-2c-2.56-3.8-5.3-7.5-7.87-11.21a2.36,2.36,0,0,1-.41-1,23.23,23.23,0,0,1-2.24-3.57,23.55,23.55,0,0,1-2.21-3.31c-.26-.38-.59-.71-.82-1.11a504.81,504.81,0,0,0-8.86,5,320.93,320.93,0,0,1-12,6.45,21.72,21.72,0,0,1-7.06,3.39,20.19,20.19,0,0,1-2.07,1.07,253.58,253.58,0,0,1-10.22,4.28A22.87,22.87,0,0,1,954,562.3a2.66,2.66,0,0,1-1.5.58l.16,0c.05,0,0,0-.15.06l-.43.19a9.43,9.43,0,0,1-.9.29c-.59.16-1.18.31-1.77.5a7.46,7.46,0,0,1-4.26.23c-.62-.15-1.21-.38-1.82-.53s-1.37-.27-2-.46-1.15-.32-1.71-.52c-.08,0-1-.29-.53-.19-.46-.11-.94-.11-1.4-.22a2.16,2.16,0,0,1-.59-.29,22.82,22.82,0,0,1-5.22-1.83,23.11,23.11,0,0,1-6.16-2.15,22.7,22.7,0,0,1-3.19-1.32,22.1,22.1,0,0,1-5.1-2.19,22.41,22.41,0,0,1-3.79-1.67,22,22,0,0,1-6-2.56,2511.31,2511.31,0,0,0-7.91-4.39,20.79,20.79,0,0,1-5.31-2.92,2.18,2.18,0,0,1-.74-.47,2.12,2.12,0,0,1-.78-.47,2.15,2.15,0,0,1-1.26-.72,19.92,19.92,0,0,1-2.34-1.37,2.42,2.42,0,0,1-.49.89s0,.07,0,.1a2.53,2.53,0,0,1-.7,1.4,2.31,2.31,0,0,1-.38.79,2,2,0,0,1-.25.42,2.34,2.34,0,0,1-.52,1.1,2.24,2.24,0,0,1-.44.66,2.33,2.33,0,0,1-1.09,1.54,2.55,2.55,0,0,1-.53,2c-2.45,3.11-4,6.85-5.53,10.45-1.21,2.8-2.59,5.48-4,8.17a2.49,2.49,0,0,1-.23.8c-3.09,6-4.88,12.52-7.94,18.53-1.38,2.7-3,5.32-4.28,8.05a20.36,20.36,0,0,1-1.76,4.71,1.83,1.83,0,0,1-1,.91c-.21.75-.48,1.49-.64,2.26a1.9,1.9,0,0,1-.5.95,55,55,0,0,1-4.88,13.79c-1.61,3.32-3.13,6.66-4.59,10-.84,4.3-2.63,8.29-4.33,12.35-1.12,2.67-2.28,5.34-3.51,8-.87,2.53-1.75,5.07-2.58,7.62-1.25,3.84-2.11,8.55-4.24,12.19-.5,1.52-1,3-1.53,4.55,12.89-20.23,61.41-90.77,112-91.48,48.67-.69,98.9,65.62,115,88.9C1060.31,669.4,1060.31,669.34,1060.3,669.29Z" style="fill:#fff;opacity:0.21"/><path d="M847.07,887.32s96.13,61,200.95,0c0,0-40.84,44.53-100.48,41.19S873.81,907.87,847.07,887.32Z" style="opacity:0.21"/><g style="opacity:0.38"><path d="M778.57,1126.06c-8.12,1.08-16.78,2.26-23.66,7.08-5.6,3.92-9.3,10.57-8.77,17.53a13.23,13.23,0,0,0,4.71,9.48c1.24,1,3-.76,1.77-1.77-4.77-3.83-4.86-10.59-2.5-15.82,2.89-6.44,9.3-9.85,15.84-11.67a91.17,91.17,0,0,1,12.61-2.33c1.57-.21,1.6-2.72,0-2.5Z" style="fill:#fff"/></g><g style="opacity:0.38"><path d="M1115.59,1128.56c7.31,1,15.05,2,21.41,6.08a17.74,17.74,0,0,1,8.56,15.41,11,11,0,0,1-4,8.33c-1.25,1,.53,2.77,1.77,1.77,5.36-4.31,5.72-12,3.28-18-3-7.24-9.71-11.35-16.95-13.5a91.79,91.79,0,0,0-14.05-2.64c-1.59-.21-1.58,2.29,0,2.5Z" style="fill:#fff"/></g></g><g id="Capa_3" data-name="Capa 3"><rect x="333" y="520" width="1258" height="485" style="fill:#fff;opacity:0.9500000000000001"/><path d="M571,604.33q0,8.11-9.74,13.39a35.09,35.09,0,0,1-17,4.46H517.42V557.25h26.79a35.2,35.2,0,0,1,17,4.46Q571,567,571,575.11Zm-14.61,0V575.11q0-3.74-4.38-6.09a16.14,16.14,0,0,0-7.79-2H532v45.45h12.18a16,16,0,0,0,7.79-2Q556.38,608.07,556.38,604.33Z" style="fill:#f1802d"/><path d="M622.94,607.9q0,6.5-7.71,10.71a28,28,0,0,1-27.35,0q-7.73-4.22-7.71-10.71V584.52q0-6.49,7.71-10.71a28,28,0,0,1,27.35,0q7.71,4.22,7.71,10.71Zm-11.69,0V584.52q0-2.92-3.49-4.87a12.84,12.84,0,0,0-6.17-1.62,13,13,0,0,0-6.25,1.62c-2.32,1.3-3.49,2.92-3.49,4.87V607.9c0,2,1.17,3.57,3.49,4.87a13,13,0,0,0,6.25,1.62,12.84,12.84,0,0,0,6.17-1.62Q611.26,610.82,611.25,607.9Z" style="fill:#f1802d"/><path d="M715,570.24,695.26,617q-2.12,5.19-8.21,5.19a10.34,10.34,0,0,1-5-1.29,6.6,6.6,0,0,1-3.25-3.89L669,584.8,659.34,617a6.57,6.57,0,0,1-3.22,3.77,10.16,10.16,0,0,1-5.08,1.41q-6.18,0-8.38-5.19l-19.72-46.75h12.24L651,607.76l9.75-32.33a6.57,6.57,0,0,1,3.25-3.89,10.06,10.06,0,0,1,5-1.3,10.22,10.22,0,0,1,5,1.3,7,7,0,0,1,3.33,3.9l9.76,32.34,15.83-37.54Z" style="fill:#f1802d"/><path d="M760.92,617a4.48,4.48,0,0,1-2.59,3.89,9,9,0,0,1-4.7,1.3q-4.3,0-7.54-5.2l-16.34-26.33v31.53H718.07V575.43a4.48,4.48,0,0,1,2.59-3.89,9,9,0,0,1,4.71-1.3q4.3,0,7.55,5.19l16.31,26.3V570.24h11.69Z" style="fill:#f1802d"/><path d="M811.08,622.18H780.89a10.06,10.06,0,0,1-4.95-1.3c-1.9-1-2.84-2.32-2.84-3.89V570.24h11.68v44.15h26.3Z" style="fill:#f1802d"/><path d="M860,607.9q0,6.5-7.72,10.71a28,28,0,0,1-27.35,0q-7.71-4.22-7.71-10.71V584.52q0-6.49,7.71-10.71a28,28,0,0,1,27.35,0Q860,578,860,584.52Zm-11.69,0V584.52c0-1.95-1.17-3.57-3.49-4.87a12.71,12.71,0,0,0-12.42,0q-3.49,2-3.49,4.87V607.9q0,2.93,3.49,4.87a12.71,12.71,0,0,0,12.42,0C847.17,611.47,848.34,609.85,848.34,607.9Z" style="fill:#f1802d"/><path d="M916.11,622.18H903.78L899,610.5H877.2l-4.93,11.68H860l19.73-46.75q2.19-5.19,8.36-5.19t8.28,5.19ZM895.82,602.7l-7.71-18.07-7.62,18.07Z" style="fill:#f1802d"/><path d="M962,607.9q0,6.5-7.79,10.71a28.24,28.24,0,0,1-13.64,3.57H919.11V570.24h21.43a28.24,28.24,0,0,1,13.64,3.57Q962,578,962,584.52Zm-11.69,0V584.52q0-2.92-3.49-4.87a13,13,0,0,0-6.25-1.62H930.8v36.36h9.74a13,13,0,0,0,6.25-1.62Q950.29,610.82,950.28,607.9Z" style="fill:#f1802d"/><path d="M1048.66,578h-15.59v44.15h-11.69V578H1005.8v-7.79h42.86Z" style="fill:#f1802d"/><path d="M1098.82,622.18h-11.69V600.11h-19.48v22.07H1056V570.24h11.69v22.07h19.48V570.24h11.69Z" style="fill:#f1802d"/><path d="M1149,622.18h-30.2a10.06,10.06,0,0,1-5-1.3Q1111,619.35,1111,617V575.43q0-2.35,2.84-3.89a10.06,10.06,0,0,1,5-1.3H1149V578h-26.3v14.28h16.56v7.8h-16.56v14.28H1149Z" style="fill:#f1802d"/><path d="M1240.53,622.18h-11.69v-1.62a29.23,29.23,0,0,1-9.74,1.62,28.2,28.2,0,0,1-13.63-3.57q-7.8-4.22-7.79-10.71V584.52q0-6.49,7.79-10.71a28.2,28.2,0,0,1,13.63-3.57,27.49,27.49,0,0,1,13.56,3.57q7.62,4.14,7.87,10.71h-11.69a6.89,6.89,0,0,0-3.65-4.87,12.07,12.07,0,0,0-6.09-1.62,12.56,12.56,0,0,0-6.17,1.62q-3.57,2-3.57,4.87V607.9q0,2.93,3.57,4.87a12.56,12.56,0,0,0,12.34,0q3.57-1.95,3.57-4.87v-7.79h-9.74v-7.8h13.64a10.17,10.17,0,0,1,5,1.3q2.83,1.54,2.84,3.9Z" style="fill:#f1802d"/><path d="M1299.62,622.18h-12.33l-4.76-11.68h-21.82l-4.93,11.68h-12.25l19.73-46.75q2.19-5.19,8.36-5.19t8.28,5.19Zm-20.29-19.48-7.71-18.07L1264,602.7Z" style="fill:#f1802d"/><path d="M1367.88,622.18h-11.69V592.64L1343,617q-2.83,5.19-7.79,5.19t-7.79-5.19l-13.15-24.35v29.54h-11.69V575.43a4.49,4.49,0,0,1,2.6-3.89,9,9,0,0,1,4.71-1.3q4.71,0,7.54,5.19l17.78,32.93L1353,575.43q2.84-5.19,7.55-5.19a9.06,9.06,0,0,1,4.71,1.3,4.48,4.48,0,0,1,2.59,3.89Z" style="fill:#f1802d"/><path d="M1418,622.18h-30.19a10.06,10.06,0,0,1-4.95-1.3c-1.9-1-2.84-2.32-2.84-3.89V575.43c0-1.57.94-2.87,2.84-3.89a10.06,10.06,0,0,1,4.95-1.3H1418V578h-26.3v14.28h16.56v7.8h-16.56v14.28H1418Z" style="fill:#f1802d"/><path d="M615.59,739.06H603.26l-4.75-11.68H576.68l-4.93,11.68H559.51l19.72-46.75q2.19-5.19,8.36-5.19t8.28,5.19Zm-20.28-19.48-7.72-18.07L580,719.58Z" style="fill:#f1802d"/><path d="M661.45,733.87a4.5,4.5,0,0,1-2.59,3.9,9.11,9.11,0,0,1-4.7,1.29q-4.3,0-7.54-5.2l-16.33-26.33v31.53H618.6V692.31a4.47,4.47,0,0,1,2.6-3.89,9,9,0,0,1,4.7-1.3q4.3,0,7.55,5.19l16.32,26.3V687.12h11.68Z" style="fill:#f1802d"/><path d="M716.48,724.78q0,6.5-7.79,10.71a28.09,28.09,0,0,1-13.63,3.57H673.63V687.12h21.43a28.2,28.2,0,0,1,13.63,3.57q7.8,4.21,7.79,10.71Zm-11.68,0V701.4c0-1.94-1.17-3.57-3.49-4.87a13,13,0,0,0-6.25-1.62h-9.74v36.36h9.74a13,13,0,0,0,6.25-1.62C703.63,728.35,704.8,726.73,704.8,724.78Z" style="fill:#f1802d"/><path d="M808,724.78q0,6.5-7.79,10.71a28.13,28.13,0,0,1-13.64,3.57,27.32,27.32,0,0,1-13.55-3.57q-7.56-4.14-7.88-10.71h11.69a7.21,7.21,0,0,0,3.65,4.87,11.81,11.81,0,0,0,6.09,1.62,11.31,11.31,0,0,0,6.7-2.15,6.59,6.59,0,0,0,3-5.64q0-2.93-3.57-4.87a12.56,12.56,0,0,0-6.17-1.62,26.24,26.24,0,0,1-14-3.9q-7.38-4.46-7.39-11.69,0-6.49,7.8-10.71a28.18,28.18,0,0,1,13.63-3.57,27.49,27.49,0,0,1,13.56,3.57q7.55,4.14,7.87,10.71H796.35a7.23,7.23,0,0,0-3.65-4.87,11.81,11.81,0,0,0-6.09-1.62,11.26,11.26,0,0,0-6.57,2,6.85,6.85,0,0,0-3.17,5.76q0,2.92,3.57,4.87a12.57,12.57,0,0,0,6.17,1.63,26.23,26.23,0,0,1,14,3.89Q808,717.56,808,724.78Z" style="fill:#f1802d"/><path d="M858.2,694.91H842.62v44.15H830.93V694.91H815.34v-7.79H858.2Z" style="fill:#f1802d"/><path d="M906.74,739.06H894.4l-4.75-11.68H867.83l-4.93,11.68H850.65l19.72-46.75c1.47-3.46,4.25-5.19,8.37-5.19s6.81,1.73,8.27,5.19Zm-20.29-19.48-7.71-18.07-7.63,18.07Z" style="fill:#f1802d"/><path d="M956.45,739.06H942.86l-16.07-16.8c-2.28-2.38-3.41-4.19-3.41-5.44,0-2.43,1.67-4.43,5-6q4.71-1.79,9.41-3.65,5-2.28,5-5.77c0-1.94-1.19-3.57-3.57-4.87a12.56,12.56,0,0,0-6.17-1.62H921.43v44.15H909.74V692.31q0-2.35,2.84-3.89a10.06,10.06,0,0,1,4.95-1.3h15.59a29.64,29.64,0,0,1,13.55,3.33q7.88,4,7.87,10.3,0,6.09-6.73,10.72a33.15,33.15,0,0,1-12.34,5.19Z" style="fill:#f1802d"/><path d="M1003.65,694.91H988.07v44.15H976.38V694.91H960.79v-7.79h42.86Z" style="fill:#f1802d"/><path d="M1092.28,700.75q0,12.91-33.11,17.54v20.77h-11.69V692.31q0-2.35,2.84-3.89a10.06,10.06,0,0,1,5-1.3h15.59a29.64,29.64,0,0,1,13.55,3.33Q1092.29,694.43,1092.28,700.75Zm-11.68.65c0-1.94-1.19-3.57-3.57-4.87a12.56,12.56,0,0,0-6.17-1.62h-11.69v15.58Q1080.59,708.3,1080.6,701.4Z" style="fill:#f1802d"/><path d="M1139.44,739.06h-30.19a10.1,10.1,0,0,1-5-1.29c-1.9-1-2.84-2.33-2.84-3.9V687.12h11.68v44.15h26.3Z" style="fill:#f1802d"/><path d="M1195.53,739.06h-12.34l-4.75-11.68h-21.82l-4.93,11.68h-12.25l19.72-46.75q2.19-5.19,8.36-5.19t8.28,5.19Zm-20.29-19.48-7.71-18.07-7.63,18.07Z" style="fill:#f1802d"/><path d="M1242,687.12l-20.53,27.32v24.62h-11.69V714.39l-20.45-27.27h13.7L1215.64,704l12.76-16.91Z" style="fill:#f1802d"/><path d="M1256.73,739.06H1245V687.12h11.69Z" style="fill:#f1802d"/><path d="M1311.76,733.87q0,2.36-2.6,3.9a9.09,9.09,0,0,1-4.7,1.29q-4.29,0-7.54-5.2l-16.33-26.33v31.53H1268.9V692.31a4.49,4.49,0,0,1,2.6-3.89,9,9,0,0,1,4.71-1.3q4.29,0,7.54,5.19l16.32,26.3V687.12h11.69Z" style="fill:#f1802d"/><path d="M1366.79,739.06H1355.1v-1.62a29.28,29.28,0,0,1-9.74,1.62,28.13,28.13,0,0,1-13.64-3.57q-7.79-4.22-7.79-10.71V701.4q0-6.49,7.79-10.71a28.24,28.24,0,0,1,13.64-3.57,27.43,27.43,0,0,1,13.55,3.57q7.63,4.14,7.88,10.71H1355.1a6.92,6.92,0,0,0-3.65-4.87,12.13,12.13,0,0,0-6.09-1.62,12.53,12.53,0,0,0-6.17,1.62c-2.38,1.3-3.57,2.93-3.57,4.87v23.38q0,2.93,3.57,4.87a12.56,12.56,0,0,0,12.34,0q3.57-1.95,3.57-4.87V717h-9.74V709.2H1359a10.16,10.16,0,0,1,5,1.29q2.83,1.54,2.84,3.9Z" style="fill:#f1802d"/><path d="M603.7,811.79H588.12V856H576.43V811.79H560.85V804H603.7Z" style="fill:#f1802d"/><path d="M650.78,841.66q0,6.5-7.71,10.71a27.91,27.91,0,0,1-27.35,0Q608,848.16,608,841.66V818.28q0-6.48,7.72-10.71a28,28,0,0,1,27.35,0q7.71,4.21,7.71,10.71Zm-11.69,0V818.28c0-1.94-1.16-3.57-3.49-4.87a12.84,12.84,0,0,0-6.17-1.62,13,13,0,0,0-6.25,1.62c-2.32,1.3-3.49,2.93-3.49,4.87v23.38c0,2,1.17,3.57,3.49,4.87a13,13,0,0,0,6.25,1.62,12.84,12.84,0,0,0,6.17-1.62Q639.09,844.58,639.09,841.66Z" style="fill:#f1802d"/><path d="M739.33,856H727.64v-1.63A29,29,0,0,1,717.9,856a28.11,28.11,0,0,1-13.63-3.58q-7.8-4.22-7.79-10.71V818.28q0-6.48,7.79-10.71A28.2,28.2,0,0,1,717.9,804a27.49,27.49,0,0,1,13.56,3.57q7.62,4.14,7.87,10.71H727.64a6.89,6.89,0,0,0-3.65-4.87,12.07,12.07,0,0,0-6.09-1.62,12.49,12.49,0,0,0-6.16,1.62c-2.39,1.3-3.58,2.93-3.58,4.87v23.38q0,2.93,3.58,4.87a12.54,12.54,0,0,0,12.33,0q3.57-1.95,3.57-4.87v-7.79H717.9v-7.79h13.64a10.16,10.16,0,0,1,5,1.29q2.84,1.54,2.84,3.9Z" style="fill:#f1802d"/><path d="M789.49,856H759.3a10.14,10.14,0,0,1-4.95-1.3c-1.9-1-2.84-2.33-2.84-3.9V809.19c0-1.57.94-2.86,2.84-3.89a10,10,0,0,1,4.95-1.3h30.19v7.79h-26.3v14.29h16.56v7.79H763.19v14.28h26.3Z" style="fill:#f1802d"/><path d="M844.52,850.75a4.5,4.5,0,0,1-2.59,3.9,9.12,9.12,0,0,1-4.7,1.3q-4.31,0-7.54-5.21l-16.34-26.33V856H801.67V809.19c0-1.57.86-2.86,2.59-3.89A9.06,9.06,0,0,1,809,804q4.31,0,7.55,5.19l16.31,26.3V804h11.69Z" style="fill:#f1802d"/><path d="M894.68,856H864.49a10.17,10.17,0,0,1-5-1.3c-1.9-1-2.84-2.33-2.84-3.9V809.19c0-1.57.94-2.86,2.84-3.89a10.06,10.06,0,0,1,5-1.3h30.19v7.79h-26.3v14.29h16.56v7.79H868.38v14.28h26.3Z" style="fill:#f1802d"/><path d="M953.56,856H940L923.9,839.14q-3.4-3.57-3.41-5.43,0-3.66,5-6,4.69-1.79,9.41-3.65c3.36-1.52,5-3.44,5-5.77,0-1.94-1.19-3.57-3.57-4.87a12.5,12.5,0,0,0-6.17-1.62H918.55V856H906.86V809.19c0-1.57.94-2.86,2.84-3.89a10.06,10.06,0,0,1,4.95-1.3h15.58a29.65,29.65,0,0,1,13.56,3.33q7.88,4,7.87,10.3,0,6.09-6.73,10.72a33.22,33.22,0,0,1-12.34,5.19Z" style="fill:#f1802d"/><path d="M1009.7,856H997.36l-4.75-11.69H970.79L965.85,856H953.61l19.72-46.76q2.19-5.19,8.36-5.19t8.28,5.19Zm-20.29-19.49-7.71-18.07-7.63,18.07Z" style="fill:#f1802d"/><path d="M1045,811.79h-15.58V856h-11.69V811.79h-15.58V804H1045Z" style="fill:#f1802d"/><path d="M1090.3,856h-30.2a10.17,10.17,0,0,1-4.95-1.3c-1.9-1-2.84-2.33-2.84-3.9V809.19c0-1.57.94-2.86,2.84-3.89a10.06,10.06,0,0,1,4.95-1.3h30.2v7.79H1064v14.29h16.56v7.79H1064v14.28h26.3Z" style="fill:#f1802d"/><path d="M1182.49,804,1162,831.33V856h-11.69V831.27L1129.82,804h13.7l12.58,16.91L1168.87,804Z" style="fill:#f1802d"/><path d="M1225.28,841.66q0,6.5-7.72,10.71a27.91,27.91,0,0,1-27.35,0q-7.71-4.22-7.71-10.71V818.28q0-6.48,7.71-10.71a28,28,0,0,1,27.35,0q7.73,4.21,7.72,10.71Zm-11.69,0V818.28c0-1.94-1.17-3.57-3.49-4.87a12.71,12.71,0,0,0-12.42,0c-2.33,1.3-3.49,2.93-3.49,4.87v23.38q0,2.93,3.49,4.87a12.71,12.71,0,0,0,12.42,0C1212.42,845.23,1213.59,843.61,1213.59,841.66Z" style="fill:#f1802d"/><path d="M1277.3,841.66q0,6.5-7.79,10.71a27.76,27.76,0,0,1-27.27,0q-7.8-4.22-7.79-10.71V804h11.68v37.66q0,2.93,3.58,4.87a12.54,12.54,0,0,0,12.33,0q3.57-1.95,3.57-4.87V804h11.69Z" style="fill:#f1802d"/><path d="M1336.18,856h-13.59l-16.07-16.81q-3.4-3.57-3.41-5.43,0-3.66,5-6,4.71-1.79,9.42-3.65,5-2.28,5-5.77c0-1.94-1.19-3.57-3.57-4.87a12.53,12.53,0,0,0-6.17-1.62h-11.69V856h-11.68V809.19c0-1.57.94-2.86,2.84-3.89a10.06,10.06,0,0,1,5-1.3h15.58a29.68,29.68,0,0,1,13.56,3.33q7.88,4,7.87,10.3,0,6.09-6.74,10.72a33.1,33.1,0,0,1-12.33,5.19Z" style="fill:#f1802d"/><path d="M672.69,934.51q0,12.91-33.11,17.54v20.78H627.89V926.07c0-1.57,1-2.86,2.84-3.89a10.06,10.06,0,0,1,4.95-1.3h15.59a29.64,29.64,0,0,1,13.55,3.33Q672.7,928.19,672.69,934.51Zm-11.68.65c0-1.94-1.19-3.57-3.57-4.87a12.56,12.56,0,0,0-6.17-1.62H639.58v15.58Q661,942.06,661,935.16Z" style="fill:#f1802d"/><path d="M719.85,972.83H689.66a10.11,10.11,0,0,1-4.95-1.3c-1.9-1-2.84-2.33-2.84-3.9V926.07c0-1.57.94-2.86,2.84-3.89a10,10,0,0,1,4.95-1.3h30.19v7.79h-26.3V943h16.56v7.79H693.55V965h26.3Z" style="fill:#f1802d"/><path d="M778.73,972.83H765.14L749.07,956q-3.41-3.57-3.41-5.44,0-3.65,5-6,4.69-1.79,9.41-3.65c3.36-1.52,5-3.44,5-5.77,0-1.94-1.19-3.57-3.57-4.87a12.53,12.53,0,0,0-6.17-1.62H743.71v44.16H732V926.07c0-1.57.94-2.86,2.84-3.89a10.06,10.06,0,0,1,5-1.3H755.4A29.65,29.65,0,0,1,769,924.21q7.88,4,7.87,10.3,0,6.09-6.74,10.72a33.1,33.1,0,0,1-12.33,5.19Z" style="fill:#f1802d"/><path d="M830.81,958.54q0,6.5-7.8,10.71a28.08,28.08,0,0,1-13.63,3.58,27.4,27.4,0,0,1-13.56-3.58q-7.55-4.14-7.87-10.71h11.69a7.18,7.18,0,0,0,3.65,4.87,11.81,11.81,0,0,0,6.09,1.62,11.3,11.3,0,0,0,6.69-2.15,6.6,6.6,0,0,0,3-5.64q0-2.93-3.57-4.87a12.56,12.56,0,0,0-6.17-1.62,26.24,26.24,0,0,1-14-3.9q-7.4-4.46-7.39-11.69,0-6.49,7.79-10.71a28.21,28.21,0,0,1,13.64-3.57,27.43,27.43,0,0,1,13.55,3.57q7.56,4.14,7.88,10.71H819.12a7.23,7.23,0,0,0-3.65-4.87,11.81,11.81,0,0,0-6.09-1.62,11.29,11.29,0,0,0-6.58,2,6.84,6.84,0,0,0-3.16,5.76q0,2.92,3.57,4.87a12.44,12.44,0,0,0,6.17,1.63,26.23,26.23,0,0,1,14,3.89Q830.8,951.32,830.81,958.54Z" style="fill:#f1802d"/><path d="M882.75,958.54q0,6.5-7.71,10.71a27.91,27.91,0,0,1-27.35,0Q840,965,840,958.54V935.16q0-6.49,7.71-10.71a28,28,0,0,1,27.35,0q7.71,4.21,7.71,10.71Zm-11.69,0V935.16c0-1.94-1.16-3.57-3.49-4.87a12.81,12.81,0,0,0-6.16-1.62,13,13,0,0,0-6.25,1.62c-2.33,1.3-3.49,2.93-3.49,4.87v23.38q0,2.93,3.49,4.87a13,13,0,0,0,6.25,1.62,12.81,12.81,0,0,0,6.16-1.62Q871.07,961.46,871.06,958.54Z" style="fill:#f1802d"/><path d="M934.78,967.63q0,2.36-2.6,3.9a9.07,9.07,0,0,1-4.7,1.3q-4.29,0-7.54-5.21l-16.33-26.33v31.54H891.92V926.07c0-1.57.87-2.86,2.6-3.89a9,9,0,0,1,4.71-1.3q4.31,0,7.55,5.19l16.31,26.3V920.88h11.69Z" style="fill:#f1802d"/><path d="M993.87,972.83H981.53l-4.75-11.69H955L950,972.83H937.78l19.72-46.76q2.19-5.19,8.36-5.19t8.28,5.19Zm-20.29-19.49-7.71-18.07-7.63,18.07Z" style="fill:#f1802d"/><path d="M1034.86,972.83h-30.2a10.17,10.17,0,0,1-4.95-1.3q-2.84-1.54-2.84-3.9V920.88h11.69V965h26.3Z" style="fill:#f1802d"/><path d="M1123.41,958.54q0,6.5-7.79,10.71a28.14,28.14,0,0,1-13.64,3.58,27.33,27.33,0,0,1-13.55-3.58q-7.56-4.14-7.88-10.71h11.69a7.21,7.21,0,0,0,3.65,4.87A11.81,11.81,0,0,0,1102,965a11.31,11.31,0,0,0,6.7-2.15,6.59,6.59,0,0,0,3-5.64q0-2.93-3.57-4.87a12.56,12.56,0,0,0-6.17-1.62,26.24,26.24,0,0,1-14-3.9q-7.39-4.46-7.39-11.69,0-6.49,7.79-10.71a28.24,28.24,0,0,1,13.64-3.57,27.49,27.49,0,0,1,13.56,3.57q7.55,4.14,7.87,10.71h-11.69a7.23,7.23,0,0,0-3.65-4.87,11.81,11.81,0,0,0-6.09-1.62,11.26,11.26,0,0,0-6.57,2,6.85,6.85,0,0,0-3.17,5.76q0,2.92,3.57,4.87A12.46,12.46,0,0,0,1102,943a26.23,26.23,0,0,1,14,3.89Q1123.42,951.32,1123.41,958.54Z" style="fill:#f1802d"/><path d="M1173.57,928.67H1158v44.16H1146.3V928.67h-15.59v-7.79h42.86Z" style="fill:#f1802d"/><path d="M1222.11,972.83h-12.34L1205,961.14H1183.2l-4.93,11.69H1166l19.72-46.76q2.19-5.19,8.36-5.19t8.28,5.19Zm-20.29-19.49-7.71-18.07-7.63,18.07Z" style="fill:#f1802d"/><path d="M1257.42,928.67h-15.59v44.16h-11.69V928.67h-15.58v-7.79h42.86Z" style="fill:#f1802d"/><path d="M1307.58,958.54q0,6.5-7.79,10.71a28.14,28.14,0,0,1-13.64,3.58,27.4,27.4,0,0,1-13.56-3.58q-7.54-4.14-7.87-10.71h11.69a7.18,7.18,0,0,0,3.65,4.87,11.81,11.81,0,0,0,6.09,1.62,11.33,11.33,0,0,0,6.7-2.15,6.59,6.59,0,0,0,3-5.64q0-2.93-3.57-4.87a12.56,12.56,0,0,0-6.17-1.62,26.24,26.24,0,0,1-14-3.9q-7.39-4.46-7.39-11.69,0-6.49,7.79-10.71a28.24,28.24,0,0,1,13.64-3.57,27.43,27.43,0,0,1,13.55,3.57q7.56,4.14,7.88,10.71h-11.69a7.23,7.23,0,0,0-3.65-4.87,11.81,11.81,0,0,0-6.09-1.62,11.23,11.23,0,0,0-6.57,2,6.82,6.82,0,0,0-3.17,5.76q0,2.92,3.57,4.87a12.44,12.44,0,0,0,6.17,1.63,26.23,26.23,0,0,1,14,3.89Q1307.57,951.32,1307.58,958.54Z" style="fill:#f1802d"/></g></svg>