<svg xmlns="http://www.w3.org/2000/svg" viewBox="0 0 1920 1172.96"><g id="Capa_1" data-name="Capa 1"><rect width="1920" height="1080" style="fill:#123740"/></g><g id="Capa_2" data-name="Capa 2"><path d="M983,299.5c16.13-39.21,50.25-62.35,76.23-51.67s34,51.14,18,90.35-50.25,62.36-76.23,51.67S966.84,338.72,983,299.5Z" style="fill:#383838"/><path d="M1030,584.42s69.26,47.11,157.7-46.37c0,0-22.06-48.14,17-66.62,12.7-6,28.14-4.47,37.94,5.58,6.52,6.67,11.23,17.31,8.48,34.37,0,0-7.15,32.45-40.88,35.2,0,0-56.33,118.78-150.84,109.36a445.72,445.72,0,0,0-29.56-71.42Z" style="fill:#37f265"/><path d="M1029.88,584.52a445.72,445.72,0,0,1,29.56,71.42c28.19,89.18,20,159.08,20,159.08a131.84,131.84,0,0,1-5.2,23.09c-10.49,34-41.42,93.24-128.73,92.07-82.36-1.13-113.39-56-124.86-91.73v0a144.46,144.46,0,0,1-6.57-30c-8.62-46.23,7.21-109,26.48-162.51,9.85-27.36,20.58-52.36,29.36-71.48l0,0c10.64-23.18,18.48-37.84,18.48-37.84,32.7,20.83,58.93,25.73,58.93,25.73a258.61,258.61,0,0,0,53.58-25.73A434.71,434.71,0,0,1,1029.88,584.52Z" style="fill:#37f265"/><path d="M917,299.5c-16.08-39.21-50.25-62.35-76.23-51.67s-34,51.14-17.94,90.35,50.25,62.36,76.28,51.67S933.11,338.72,917,299.5ZM945.46,56.55c209.87,0,184.82,235.31,184.82,235.31S1128,456.08,1000.91,536.48a258.61,258.61,0,0,1-53.58,25.73s-26.23-4.9-58.93-25.73c-48.09-30.59-110.2-95.55-123.58-229.62C764.82,306.86,735.65,56.55,945.46,56.55Zm113.73,191.28c-26-10.68-60.1,12.46-76.23,51.67s-8.08,79.67,17.95,90.35,60.1-12.45,76.23-51.67S1085.22,258.47,1059.19,247.83Z" style="fill:#37f265"/><path d="M840.75,247.83c26-10.68,60.15,12.46,76.23,51.67s8.09,79.67-17.89,90.35-60.15-12.45-76.28-51.67S814.77,258.47,840.75,247.83Z" style="fill:#383838"/><path d="M834,1108.76C796,1079,820.11,843,820.6,838.45c11.47,35.69,42.5,90.6,124.86,91.73,87.31,1.17,118.24-58.1,128.73-92.07l.89.3s25,240.3-13.44,270.35c0,0,108.44,6.67,93.44,48.39-11.91,33.09-78.53,4.21-105.49-9.17a26.87,26.87,0,0,1-14.22-17.45C1024.63,1089.06,985.71,951,945.46,959c-33.92-1.62-74.07,133-85.1,172.41A25.74,25.74,0,0,1,847,1147.54c-26.33,13.14-94.37,43.09-106.43,9.61C725.6,1115.43,834,1108.76,834,1108.76Z" style="fill:#37f265"/><path d="M712.21,528c87.12,92,155.55,47.74,157.66,46.37-8.78,19.12-19.51,44.12-29.36,71.48-94.47,9.41-150.8-109.37-150.8-109.37-33.77-2.7-40.88-35.2-40.88-35.2-2.8-17,2-27.7,8.43-34.32,9.81-10,25.25-11.56,37.94-5.58C734.32,479.81,712.21,528,712.21,528Z" style="fill:#37f265"/><path d="M888.4,536.48c-48.09-30.59-110.2-95.55-123.58-229.62,0,0-29.17-250.31,180.64-250.31s184.82,235.31,184.82,235.31S1128,456.08,1000.91,536.48a258.61,258.61,0,0,1-53.58,25.73S921.1,557.31,888.4,536.48Z" style="fill:none;stroke:#000;stroke-miterlimit:10"/><path d="M917,299.5c16.13,39.22,8.09,79.67-17.89,90.35s-60.15-12.45-76.28-51.67-8-79.71,17.94-90.35S900.9,260.29,917,299.5Z" style="fill:none;stroke:#000;stroke-miterlimit:10"/><path d="M983,299.5c-16.12,39.22-8.08,79.67,17.95,90.35s60.1-12.45,76.23-51.67,8.08-79.71-18-90.35S999.09,260.29,983,299.5Z" style="fill:none;stroke:#000;stroke-miterlimit:10"/><path d="M820.6,838.45c11.47,35.69,42.5,90.6,124.86,91.73,87.31,1.17,118.24-58.1,128.73-92.07a131.84,131.84,0,0,0,5.2-23.09s8.24-69.9-20-159.08a445.72,445.72,0,0,0-29.56-71.42,434.71,434.71,0,0,0-29-48" style="fill:none;stroke:#000;stroke-miterlimit:10"/><path d="M869.87,574.37c-8.78,19.12-19.51,44.12-29.36,71.48-19.27,53.53-35.1,116.28-26.48,162.51a144.46,144.46,0,0,0,6.57,30" style="fill:none;stroke:#000;stroke-miterlimit:10"/><path d="M888.4,536.48s-7.84,14.66-18.48,37.84" style="fill:none;stroke:#000;stroke-miterlimit:10"/><path d="M820.6,838.41v0C820.11,843,796,1079,834,1108.76c0,0-108.43,6.67-93.43,48.39,12.06,33.48,80.1,3.53,106.43-9.61a25.74,25.74,0,0,0,13.33-16.18c11-39.46,51.18-174,85.1-172.41a1.18,1.18,0,0,1,.59,0" style="fill:none;stroke:#000;stroke-miterlimit:10"/><path d="M1075.08,838.41s25,240.3-13.44,270.35c0,0,108.44,6.67,93.44,48.39-11.91,33.09-78.53,4.21-105.49-9.17a26.87,26.87,0,0,1-14.22-17.45C1024.63,1089.06,985.71,951,945.46,959h-.14" style="fill:none;stroke:#000;stroke-miterlimit:10"/><path d="M869.92,574.32l0,0C867.76,575.74,799.33,620,712.21,528c0,0,22.11-48.19-17-66.62-12.69-6-28.13-4.47-37.94,5.58-6.47,6.62-11.23,17.31-8.43,34.32,0,0,7.11,32.5,40.88,35.2,0,0,56.33,118.78,150.8,109.37" style="fill:none;stroke:#000;stroke-miterlimit:10"/><path d="M1030,584.42s69.26,47.11,157.7-46.37c0,0-22.06-48.14,17-66.62,12.7-6,28.14-4.47,37.94,5.58,6.52,6.67,11.23,17.31,8.48,34.37,0,0-7.15,32.45-40.88,35.2,0,0-56.33,118.78-150.84,109.36" style="fill:none;stroke:#000;stroke-miterlimit:10"/><path d="M843.76,267.29A30.78,30.78,0,0,0,836,299.12a2.58,2.58,0,0,0,3.08,1.75,2.53,2.53,0,0,0,1.74-3.08,25.81,25.81,0,0,1,6.44-27c2.34-2.22-1.2-5.75-3.54-3.54Z" style="fill:#fff"/><path d="M1049.75,269.84c7.87,5.26,11.25,15.86,8.25,24.75-1,3.05,3.79,4.36,4.82,1.33,3.74-11.08-.88-23.94-10.54-30.39-2.69-1.8-5.19,2.53-2.53,4.31Z" style="fill:#fff"/><path d="M946.06,543.84C918,539.5,827.41,475.42,827.41,475.42c13.38,36.4,92.37,77,114.41,88.3a24.77,24.77,0,0,1,6.06-.75c.33,0,.62,0,.94,0,2.13-1.08,4.26-2.19,6.41-3.24a22.83,22.83,0,0,1,8.91-3.39,21.21,21.21,0,0,1,11.43-5.72A21.68,21.68,0,0,1,992,543.43c46-31.1,74.39-67.51,74.39-67.51S974.11,548.19,946.06,543.84Z" style="opacity:0.2"/><path d="M782.3,169.58S859.57,80.46,946.06,79.8s167,89.78,167,89.78S1087.29,56.44,946.92,57.27,782.3,169.58,782.3,169.58Z" style="fill:#fff;opacity:0.18"/><path d="M1060.3,669.29a113.62,113.62,0,0,0-4-15c-1.52-4.71-2.88-9.44-4.36-14.16-1.37-4.39-4-8.13-5.6-12.44a2.09,2.09,0,0,1,0-1.44c-1.07-2.79-2.32-5.5-3.58-8.22-1.45-3.16-2.71-6.41-4.18-9.56-3.06-6.49-6.78-12.66-9.71-19.21a2.53,2.53,0,0,1-.15-1c-.9-1.7-1.78-3.4-2.76-5a83.22,83.22,0,0,1-5.06-11.08,60.17,60.17,0,0,0-3.51-6.94,41.74,41.74,0,0,0-2.74-3.44,2.61,2.61,0,0,1-.65-2c-2.56-3.8-5.3-7.5-7.87-11.21a2.36,2.36,0,0,1-.41-1,23.23,23.23,0,0,1-2.24-3.57,23.55,23.55,0,0,1-2.21-3.31c-.26-.38-.59-.71-.82-1.11a504.81,504.81,0,0,0-8.86,5,320.93,320.93,0,0,1-12,6.45,21.72,21.72,0,0,1-7.06,3.39,20.19,20.19,0,0,1-2.07,1.07,253.58,253.58,0,0,1-10.22,4.28A22.87,22.87,0,0,1,954,562.3a2.66,2.66,0,0,1-1.5.58l.16,0c.05,0,0,0-.15.06l-.43.19a9.43,9.43,0,0,1-.9.29c-.59.16-1.18.31-1.77.5a7.46,7.46,0,0,1-4.26.23c-.62-.15-1.21-.38-1.82-.53s-1.37-.27-2-.46-1.15-.32-1.71-.52c-.08,0-1-.29-.53-.19-.46-.11-.94-.11-1.4-.22a2.16,2.16,0,0,1-.59-.29,22.82,22.82,0,0,1-5.22-1.83,23.11,23.11,0,0,1-6.16-2.15,22.7,22.7,0,0,1-3.19-1.32,22.1,22.1,0,0,1-5.1-2.19,22.41,22.41,0,0,1-3.79-1.67,22,22,0,0,1-6-2.56,2511.31,2511.31,0,0,0-7.91-4.39,20.79,20.79,0,0,1-5.31-2.92,2.18,2.18,0,0,1-.74-.47,2.12,2.12,0,0,1-.78-.47,2.15,2.15,0,0,1-1.26-.72,19.92,19.92,0,0,1-2.34-1.37,2.42,2.42,0,0,1-.49.89s0,.07,0,.1a2.53,2.53,0,0,1-.7,1.4,2.31,2.31,0,0,1-.38.79,2,2,0,0,1-.25.42,2.34,2.34,0,0,1-.52,1.1,2.24,2.24,0,0,1-.44.66,2.33,2.33,0,0,1-1.09,1.54,2.55,2.55,0,0,1-.53,2c-2.45,3.11-4,6.85-5.53,10.45-1.21,2.8-2.59,5.48-4,8.17a2.49,2.49,0,0,1-.23.8c-3.09,6-4.88,12.52-7.94,18.53-1.38,2.7-3,5.32-4.28,8.05a20.36,20.36,0,0,1-1.76,4.71,1.83,1.83,0,0,1-1,.91c-.21.75-.48,1.49-.64,2.26a1.9,1.9,0,0,1-.5.95,55,55,0,0,1-4.88,13.79c-1.61,3.32-3.13,6.66-4.59,10-.84,4.3-2.63,8.29-4.33,12.35-1.12,2.67-2.28,5.34-3.51,8-.87,2.53-1.75,5.07-2.58,7.62-1.25,3.84-2.11,8.55-4.24,12.19-.5,1.52-1,3-1.53,4.55,12.89-20.23,61.41-90.77,112-91.48,48.67-.69,98.9,65.62,115,88.9C1060.31,669.4,1060.31,669.34,1060.3,669.29Z" style="fill:#fff;opacity:0.21"/><path d="M847.07,887.32s96.13,61,200.95,0c0,0-40.84,44.53-100.48,41.19S873.81,907.87,847.07,887.32Z" style="opacity:0.21"/><g style="opacity:0.38"><path d="M778.57,1126.06c-8.12,1.08-16.78,2.26-23.66,7.08-5.6,3.92-9.3,10.57-8.77,17.53a13.23,13.23,0,0,0,4.71,9.48c1.24,1,3-.76,1.77-1.77-4.77-3.83-4.86-10.59-2.5-15.82,2.89-6.44,9.3-9.85,15.84-11.67a91.17,91.17,0,0,1,12.61-2.33c1.57-.21,1.6-2.72,0-2.5Z" style="fill:#fff"/></g><g style="opacity:0.38"><path d="M1115.59,1128.56c7.31,1,15.05,2,21.41,6.08a17.74,17.74,0,0,1,8.56,15.41,11,11,0,0,1-4,8.33c-1.25,1,.53,2.77,1.77,1.77,5.36-4.31,5.72-12,3.28-18-3-7.24-9.71-11.35-16.95-13.5a91.79,91.79,0,0,0-14.05-2.64c-1.59-.21-1.58,2.29,0,2.5Z" style="fill:#fff"/></g></g><g id="Capa_3" data-name="Capa 3"><rect x="333" y="520" width="1258" height="485" style="fill:#fff;opacity:0.9500000000000001"/><path d="M525.32,640.25H512.74V584.34h12.58Z" style="fill:#f1802d"/><path d="M581.92,634.66c0,1.68-.93,3.07-2.79,4.19a9.67,9.67,0,0,1-5,1.4q-4.75,0-8.17-5.61L548.38,606.3v34H535.8V589.93q0-2.5,2.79-4.19a9.8,9.8,0,0,1,5-1.4q4.75,0,8.18,5.59l17.54,28.31v-33.9h12.58Z" style="fill:#f1802d"/><path d="M644.81,584.34l-21.17,50.32a8.36,8.36,0,0,1-3.56,4.09,10.37,10.37,0,0,1-5.39,1.5,10.22,10.22,0,0,1-5.31-1.5,8.36,8.36,0,0,1-3.56-4.09L584.5,584.34h13.06l17.12,40.43,17-40.43Z" style="fill:#f1802d"/><path d="M660.05,640.25H647.47V584.34h12.58Z" style="fill:#f1802d"/><path d="M712.46,592.73H695.69v47.52H683.11V592.73H666.34v-8.39h46.12Z" style="fill:#f1802d"/><path d="M759.63,640.25h-32.5a11.1,11.1,0,0,1-5.38-1.4c-2-1.12-3-2.51-3-4.19V589.93q0-2.5,3-4.19a11.22,11.22,0,0,1,5.38-1.4h32.5v8.39h-28.3V608.1h17.82v8.39H731.33v15.37h28.3Z" style="fill:#f1802d"/><path d="M850.28,584.34l-22,29.33v26.58H815.67V613.69l-22-29.35h14.76L822,602.51l13.7-18.17Z" style="fill:#f1802d"/><path d="M896.46,624.88q0,7-8.39,11.53a30.09,30.09,0,0,1-29.42,0q-8.32-4.54-8.32-11.53V599.72q0-7,8.32-11.53a30,30,0,0,1,29.42,0q8.38,4.54,8.39,11.53Zm-12.58,0V599.72q0-3.21-3.85-5.24a13.79,13.79,0,0,0-6.7-1.75,13.65,13.65,0,0,0-6.64,1.75q-3.78,2-3.78,5.24v25.16q0,3.21,3.78,5.24a13.75,13.75,0,0,0,6.64,1.74,13.89,13.89,0,0,0,6.7-1.74Q883.89,628.1,883.88,624.88Z" style="fill:#f1802d"/><path d="M950.4,624.88q0,7-8.38,11.53a30,30,0,0,1-29.35,0q-8.38-4.54-8.39-11.53V584.34h12.58v40.54q0,3.21,3.77,5.24a13.81,13.81,0,0,0,13.42,0q3.78-2,3.78-5.24V584.34H950.4Z" style="fill:#f1802d"/><path d="M1011.2,640.25H996.53l-17.27-18.1q-3.71-3.84-3.7-5.87,0-3.84,4-5.94l7.34-2.59q9.64-3.35,9.65-8,0-3.21-3.78-5.24a13.8,13.8,0,0,0-6.71-1.75H973.46v47.52H960.89V589.93q0-2.5,3.07-4.19a10.81,10.81,0,0,1,5.31-1.4H986a31.58,31.58,0,0,1,14.54,3.57q8.52,4.32,8.52,11.1,0,6.57-7.26,11.59a35.71,35.71,0,0,1-13.26,5.52Z" style="fill:#f1802d"/><path d="M1091.42,592.73h-28.3V608.1h17.82v8.39h-17.82v23.76h-12.58V589.93q0-2.5,3-4.19a11.19,11.19,0,0,1,5.38-1.4h32.49Z" style="fill:#f1802d"/><path d="M1149.64,640.25H1135l-17.26-18.1q-3.71-3.84-3.7-5.87c0-2.56,1.32-4.54,4-5.94l7.34-2.59q9.65-3.35,9.64-8,0-3.21-3.77-5.24a13.83,13.83,0,0,0-6.71-1.75H1111.9v47.52h-12.58V589.93c0-1.67,1-3.07,3.08-4.19a10.76,10.76,0,0,1,5.31-1.4h16.77a31.55,31.55,0,0,1,14.53,3.57q8.54,4.32,8.53,11.1,0,6.57-7.26,11.59a35.71,35.71,0,0,1-13.26,5.52Z" style="fill:#f1802d"/><path d="M1170.11,640.25h-12.58V584.34h12.58Z" style="fill:#f1802d"/><path d="M1221.47,640.25H1189a11,11,0,0,1-5.38-1.4c-2-1.12-3-2.51-3-4.19V589.93q0-2.5,3-4.19a11.16,11.16,0,0,1,5.38-1.4h32.49v8.39h-28.3V608.1H1211v8.39h-17.82v15.37h28.3Z" style="fill:#f1802d"/><path d="M1278.08,634.66c0,1.68-.93,3.07-2.79,4.19a9.68,9.68,0,0,1-5,1.4q-4.74,0-8.16-5.61l-17.57-28.34v34H1232V589.93q0-2.5,2.79-4.19a9.77,9.77,0,0,1,5-1.4q4.76,0,8.18,5.59l17.54,28.31v-33.9h12.58Z" style="fill:#f1802d"/><path d="M1334.68,624.88q0,7-8.39,11.53a30.27,30.27,0,0,1-14.67,3.84h-23.06V584.34h23.06a30.28,30.28,0,0,1,14.67,3.85q8.39,4.54,8.39,11.53Zm-12.58,0V599.72q0-3.21-3.77-5.24a13.83,13.83,0,0,0-6.71-1.75h-10.48v39.13h10.48a13.93,13.93,0,0,0,6.71-1.74Q1322.09,628.1,1322.1,624.88Z" style="fill:#f1802d"/><path d="M1391.28,624.88q0,7-8.38,11.53a30.34,30.34,0,0,1-14.68,3.84,29.64,29.64,0,0,1-14.6-3.84q-8.11-4.47-8.46-11.53h12.58a7.86,7.86,0,0,0,4,5.24,12.53,12.53,0,0,0,6.5,1.74,12,12,0,0,0,7.06-2.16,7.28,7.28,0,0,0,3.43-6.22q0-3.21-3.78-5.24a13.8,13.8,0,0,0-6.71-1.75,30.27,30.27,0,0,1-14.67-3.84q-8.38-4.54-8.39-11.53v-1.4q0-7,8.39-11.53a30.28,30.28,0,0,1,14.67-3.85,29.66,29.66,0,0,1,14.61,3.85q8.1,4.47,8.45,11.53h-12.57a7.85,7.85,0,0,0-4-5.24,12.4,12.4,0,0,0-6.5-1.75,11.93,11.93,0,0,0-7.06,2.17,7.25,7.25,0,0,0-3.42,6.22q0,3.21,3.77,5.24a13.93,13.93,0,0,0,6.71,1.74A30.35,30.35,0,0,1,1382.9,612q8.38,4.54,8.38,11.53Z" style="fill:#f1802d"/><path d="M500.23,693.36H483.46v47.52H470.88V693.36H454.11V685h46.12Z" style="fill:#f1802d"/><path d="M550.05,725.51q0,7-8.38,11.53a30.09,30.09,0,0,1-29.42,0q-8.33-4.54-8.32-11.53V700.35q0-7,8.32-11.53a30,30,0,0,1,29.42,0q8.39,4.54,8.38,11.53Zm-12.57,0V700.35c0-2.14-1.29-3.89-3.85-5.24a13.6,13.6,0,0,0-13.35,0q-3.76,2-3.77,5.24v25.16q0,3.21,3.77,5.24a13.6,13.6,0,0,0,13.35,0C536.19,729.4,537.48,727.65,537.48,725.51Z" style="fill:#f1802d"/><path d="M637.55,699.65q0,13.85-35.64,18.87v22.36H589.33V690.57c0-1.73,1-3.12,3.07-4.2a10.81,10.81,0,0,1,5.31-1.4h16.77A31.55,31.55,0,0,1,629,688.54Q637.54,692.88,637.55,699.65Zm-12.58.7q0-3.21-3.78-5.24a13.8,13.8,0,0,0-6.71-1.75H601.91v16.77Q625,707.69,625,700.35Z" style="fill:#f1802d"/><path d="M688.91,740.88h-32.5a11.1,11.1,0,0,1-5.38-1.4q-3-1.66-3-4.19V685h12.58V732.5h28.3Z" style="fill:#f1802d"/><path d="M749.22,740.88H736l-5.14-12.58H707.44L702,740.88H688.91l21.31-50.31a8.29,8.29,0,0,1,3.57-4.09A10.18,10.18,0,0,1,719.1,685a10.35,10.35,0,0,1,5.38,1.51,8.27,8.27,0,0,1,3.56,4.09Zm-21.94-21-8.15-19.37-8.21,19.37Z" style="fill:#f1802d"/><path d="M800.59,685l-22,29.34v26.57H766V714.33L744,685h14.76l13.54,18.17L786,685Z" style="fill:#f1802d"/><path d="M887.09,740.88H873.9l-5.14-12.58H845.32l-5.41,12.58H826.78l21.32-50.31a8.32,8.32,0,0,1,3.56-4.09,10.21,10.21,0,0,1,10.69,0,8.29,8.29,0,0,1,3.57,4.09Zm-21.94-21L857,700.55l-8.21,19.37Z" style="fill:#f1802d"/><path d="M935.87,735.29q0,2.52-2.79,4.19a9.67,9.67,0,0,1-5,1.4q-4.75,0-8.17-5.61l-17.56-28.34v34H889.75V690.57q0-2.52,2.79-4.2a9.8,9.8,0,0,1,5-1.4q4.75,0,8.18,5.6l17.54,28.3V685h12.58Z" style="fill:#f1802d"/><path d="M992.47,725.51q0,7-8.38,11.53a30.34,30.34,0,0,1-14.68,3.84H946.35V685h23.06a30.35,30.35,0,0,1,14.68,3.85q8.38,4.54,8.38,11.53Zm-12.58,0V700.35c0-2.14-1.25-3.89-3.77-5.24a13.8,13.8,0,0,0-6.71-1.75H958.93V732.5h10.48a13.91,13.91,0,0,0,6.71-1.75C978.64,729.4,979.89,727.65,979.89,725.51Z" style="fill:#f1802d"/><path d="M1080.52,740.88H1068v-1.75a31.64,31.64,0,0,1-10.49,1.75,30.27,30.27,0,0,1-14.67-3.84q-8.38-4.54-8.39-11.53V700.35q0-7,8.39-11.53a30.28,30.28,0,0,1,14.67-3.85,29.66,29.66,0,0,1,14.61,3.85q8.17,4.47,8.45,11.53H1068a7.62,7.62,0,0,0-3.92-5.24,13,13,0,0,0-6.57-1.75,13.83,13.83,0,0,0-6.71,1.75q-3.76,2-3.77,5.24v25.16q0,3.21,3.77,5.24a13.74,13.74,0,0,0,13.42,0q3.78-2,3.78-5.24v-8.39h-10.49v-8.38h14.68a10.8,10.8,0,0,1,5.31,1.39q3.08,1.68,3.07,4.2Z" style="fill:#f1802d"/><path d="M1131.89,740.88h-32.5a11.08,11.08,0,0,1-5.38-1.4q-3-1.66-3-4.19V690.57q0-2.52,3-4.2a11.19,11.19,0,0,1,5.38-1.4h32.5v8.39h-28.31v15.38h17.82v8.38h-17.82V732.5h28.31Z" style="fill:#f1802d"/><path d="M1188.49,735.29q0,2.52-2.79,4.19a9.67,9.67,0,0,1-5,1.4q-4.76,0-8.17-5.61L1155,706.93v34h-12.58V690.57q0-2.52,2.79-4.2a9.81,9.81,0,0,1,5-1.4q4.74,0,8.17,5.6l17.54,28.3V685h12.58Z" style="fill:#f1802d"/><path d="M1239.85,740.88h-32.49a11,11,0,0,1-5.38-1.4q-3-1.66-3-4.19V690.57q0-2.52,3-4.2a11.16,11.16,0,0,1,5.38-1.4h32.49v8.39h-28.3v15.38h17.82v8.38h-17.82V732.5h28.3Z" style="fill:#f1802d"/><path d="M1300.65,740.88H1286l-17.26-18.1q-3.7-3.84-3.7-5.87,0-3.84,4-5.94l7.34-2.58q9.64-3.36,9.64-8c0-2.14-1.25-3.89-3.77-5.24a13.8,13.8,0,0,0-6.71-1.75h-12.58v47.52h-12.58V690.57q0-2.52,3.08-4.2a10.81,10.81,0,0,1,5.31-1.4h16.77a31.58,31.58,0,0,1,14.54,3.57q8.52,4.32,8.52,11.1,0,6.57-7.26,11.59a35.71,35.71,0,0,1-13.26,5.52Z" style="fill:#f1802d"/><path d="M1361,740.88h-13.2l-5.14-12.58h-23.44l-5.4,12.58h-13.13L1322,690.57a8.29,8.29,0,0,1,3.57-4.09,10.21,10.21,0,0,1,5.31-1.51,10.35,10.35,0,0,1,5.38,1.51,8.27,8.27,0,0,1,3.56,4.09Zm-21.94-21-8.15-19.37-8.21,19.37Z" style="fill:#f1802d"/><path d="M1398.55,693.36h-16.77v47.52H1369.2V693.36h-16.77V685h46.12Z" style="fill:#f1802d"/><path d="M1445.72,740.88h-32.49a11,11,0,0,1-5.38-1.4q-3-1.66-3-4.19V690.57q0-2.52,3-4.2a11.16,11.16,0,0,1,5.38-1.4h32.49v8.39h-28.3v15.38h17.82v8.38h-17.82V732.5h28.3Z" style="fill:#f1802d"/><path d="M417,826.14q0,7-8.38,11.53a30.34,30.34,0,0,1-14.68,3.84,29.64,29.64,0,0,1-14.6-3.84q-8.12-4.47-8.46-11.53h12.58a7.86,7.86,0,0,0,4,5.24,12.53,12.53,0,0,0,6.5,1.74A12,12,0,0,0,401,831a7.27,7.27,0,0,0,3.43-6.22q0-3.21-3.78-5.24a13.8,13.8,0,0,0-6.71-1.75,30.27,30.27,0,0,1-14.67-3.84q-8.39-4.54-8.39-11.53V801q0-7,8.39-11.53a30.28,30.28,0,0,1,14.67-3.85,29.66,29.66,0,0,1,14.61,3.85q8.1,4.47,8.45,11.53H404.39a7.85,7.85,0,0,0-4-5.24,12.4,12.4,0,0,0-6.5-1.75,11.93,11.93,0,0,0-7.06,2.17,7.26,7.26,0,0,0-3.42,6.22q0,3.21,3.77,5.24a13.94,13.94,0,0,0,6.71,1.75,30.34,30.34,0,0,1,14.68,3.84q8.39,4.54,8.38,11.53Z" style="fill:#f1802d"/><path d="M469.37,794H452.6v47.52H440V794H423.25V785.6h46.12Z" style="fill:#f1802d"/><path d="M521.09,841.51h-13.2l-5.14-12.58H479.31l-5.4,12.58H460.78l21.31-50.31a8.29,8.29,0,0,1,3.57-4.09A10.23,10.23,0,0,1,491,785.6a10.35,10.35,0,0,1,5.38,1.51,8.27,8.27,0,0,1,3.56,4.09Zm-21.94-21L491,801.18l-8.21,19.37Z" style="fill:#f1802d"/><path d="M558.68,794H541.91v47.52H529.33V794H512.56V785.6h46.12Z" style="fill:#f1802d"/><path d="M611.1,826.14q0,7-8.39,11.53A30.34,30.34,0,0,1,588,841.51a29.64,29.64,0,0,1-14.6-3.84q-8.11-4.47-8.46-11.53h12.58a7.85,7.85,0,0,0,4,5.24,12.47,12.47,0,0,0,6.49,1.74,12,12,0,0,0,7.06-2.16,7.25,7.25,0,0,0,3.43-6.22q0-3.21-3.78-5.24a13.8,13.8,0,0,0-6.71-1.75,30.3,30.3,0,0,1-14.67-3.84Q565,809.37,565,802.38V801q0-7,8.39-11.53A30.31,30.31,0,0,1,588,785.6a29.66,29.66,0,0,1,14.61,3.85q8.1,4.47,8.46,11.53H598.52a7.85,7.85,0,0,0-4-5.24A12.4,12.4,0,0,0,588,794a11.9,11.9,0,0,0-7,2.17,7.25,7.25,0,0,0-3.43,6.22q0,3.21,3.78,5.24a13.88,13.88,0,0,0,6.7,1.75,30.34,30.34,0,0,1,14.68,3.84q8.38,4.54,8.39,11.53Z" style="fill:#f1802d"/><path d="M695,794H678.18v47.52H665.6V794H648.83V785.6H695Z" style="fill:#f1802d"/><path d="M744.78,826.14q0,7-8.39,11.53a30.09,30.09,0,0,1-29.42,0q-8.31-4.54-8.31-11.53V801q0-7,8.31-11.53a30,30,0,0,1,29.42,0q8.39,4.54,8.39,11.53Zm-12.58,0V801q0-3.21-3.84-5.24a13.83,13.83,0,0,0-6.71-1.75,13.68,13.68,0,0,0-6.64,1.75c-2.52,1.35-3.77,3.1-3.77,5.24v25.16c0,2.14,1.25,3.89,3.77,5.24a13.78,13.78,0,0,0,6.64,1.74,13.93,13.93,0,0,0,6.71-1.74Q732.2,829.36,732.2,826.14Z" style="fill:#f1802d"/><path d="M830.17,826.14q0,7-8.38,11.53a30.34,30.34,0,0,1-14.68,3.84,29.64,29.64,0,0,1-14.6-3.84q-8.12-4.47-8.46-11.53h12.58a7.86,7.86,0,0,0,4,5.24,12.53,12.53,0,0,0,6.5,1.74,12,12,0,0,0,7.06-2.16,7.27,7.27,0,0,0,3.43-6.22q0-3.21-3.78-5.24a13.8,13.8,0,0,0-6.71-1.75,30.27,30.27,0,0,1-14.67-3.84q-8.38-4.54-8.39-11.53V801q0-7,8.39-11.53a30.28,30.28,0,0,1,14.67-3.85,29.66,29.66,0,0,1,14.61,3.85q8.1,4.47,8.45,11.53H817.6a7.85,7.85,0,0,0-4-5.24,12.4,12.4,0,0,0-6.5-1.75,11.93,11.93,0,0,0-7.06,2.17,7.26,7.26,0,0,0-3.42,6.22q0,3.21,3.77,5.24a13.94,13.94,0,0,0,6.71,1.75,30.34,30.34,0,0,1,14.68,3.84q8.38,4.54,8.38,11.53Z" style="fill:#f1802d"/><path d="M881.54,841.51H849a11.08,11.08,0,0,1-5.38-1.4q-3-1.67-3-4.19V791.2q0-2.52,3-4.2a11.19,11.19,0,0,1,5.38-1.4h32.5V794H853.23v15.38h17.82v8.38H853.23v15.37h28.31Z" style="fill:#f1802d"/><path d="M932.9,841.51H900.4a11.1,11.1,0,0,1-5.38-1.4q-3-1.67-3-4.19V791.2q0-2.52,3-4.2a11.22,11.22,0,0,1,5.38-1.4h32.5V794H904.6v15.38h17.82v8.38H904.6v15.37h28.3Z" style="fill:#f1802d"/><path d="M1023.55,785.6l-22,29.34v26.57H988.94V815l-22-29.36h14.76l13.54,18.17,13.7-18.17Z" style="fill:#f1802d"/><path d="M1069.73,826.14q0,7-8.39,11.53a30.09,30.09,0,0,1-29.42,0q-8.31-4.54-8.32-11.53V801q0-7,8.32-11.53a30,30,0,0,1,29.42,0q8.39,4.54,8.39,11.53Zm-12.58,0V801q0-3.21-3.85-5.24a13.79,13.79,0,0,0-6.7-1.75,13.65,13.65,0,0,0-6.64,1.75q-3.78,2-3.78,5.24v25.16q0,3.21,3.78,5.24a13.75,13.75,0,0,0,6.64,1.74,13.89,13.89,0,0,0,6.7-1.74Q1057.15,829.36,1057.15,826.14Z" style="fill:#f1802d"/><path d="M1123.67,826.14q0,7-8.38,11.53a30,30,0,0,1-29.35,0q-8.39-4.54-8.39-11.53V785.6h12.58v40.54q0,3.21,3.77,5.24a13.81,13.81,0,0,0,13.42,0q3.78-2,3.78-5.24V785.6h12.57Z" style="fill:#f1802d"/><path d="M1184.47,841.51h-14.68l-17.25-18.1c-2.48-2.56-3.71-4.52-3.71-5.87q0-3.84,4-5.94l7.34-2.58q9.64-3.36,9.64-8c0-2.14-1.25-3.89-3.77-5.24a13.8,13.8,0,0,0-6.71-1.75h-12.58v47.52h-12.57V791.2q0-2.52,3.07-4.2a10.81,10.81,0,0,1,5.31-1.4h16.77a31.58,31.58,0,0,1,14.54,3.57q8.52,4.32,8.53,11.1,0,6.57-7.27,11.59a35.71,35.71,0,0,1-13.26,5.52Z" style="fill:#f1802d"/><path d="M1269.94,841.51h-12.58v-1.75a31.62,31.62,0,0,1-10.48,1.75,30.31,30.31,0,0,1-14.68-3.84q-8.39-4.54-8.39-11.53V801q0-7,8.39-11.53a30.32,30.32,0,0,1,14.68-3.85,29.65,29.65,0,0,1,14.6,3.85q8.18,4.47,8.46,11.53h-12.58a7.62,7.62,0,0,0-3.92-5.24,13,13,0,0,0-6.56-1.75,13.77,13.77,0,0,0-6.71,1.75q-3.78,2-3.78,5.24v25.16q0,3.21,3.78,5.24a13.79,13.79,0,0,0,13.41,0q3.78-2,3.78-5.24v-8.39h-10.48v-8.38h14.67a10.8,10.8,0,0,1,5.31,1.39q3.08,1.68,3.08,4.2Z" style="fill:#f1802d"/><path d="M1321.3,841.51h-32.5a11.08,11.08,0,0,1-5.38-1.4q-3-1.67-3-4.19V785.6H1293v47.52h28.3Z" style="fill:#f1802d"/><path d="M1372.73,826.14q0,7-8.38,11.53a30.09,30.09,0,0,1-29.42,0q-8.33-4.54-8.32-11.53V801q0-7,8.32-11.53a30,30,0,0,1,29.42,0q8.39,4.54,8.38,11.53Zm-12.58,0V801q0-3.21-3.84-5.24a13.6,13.6,0,0,0-13.35,0q-3.76,2-3.77,5.24v25.16q0,3.21,3.77,5.24a13.67,13.67,0,0,0,13.35,0Q1360.15,829.36,1360.15,826.14Z" style="fill:#f1802d"/><path d="M1431.92,826.14q0,7-8.38,11.53a30.34,30.34,0,0,1-14.68,3.84h-19.92a10.71,10.71,0,0,1-5.31-1.4q-3.08-1.67-3.07-4.19V791.2q0-2.52,3.07-4.2a10.81,10.81,0,0,1,5.31-1.4h14.68a31.55,31.55,0,0,1,14.53,3.57q8.53,4.33,8.53,11.11,0,7.49-9.37,11.88A25.51,25.51,0,0,1,1427,817Q1431.92,821.11,1431.92,826.14ZM1414.1,801q0-3.21-3.77-5.24a13.83,13.83,0,0,0-6.71-1.75h-10.48v16.77Q1414.09,808.68,1414.1,801Zm5.24,25.16c0-2.15-1.26-3.89-3.77-5.24a13.83,13.83,0,0,0-6.71-1.75h-15.72v14h15.72a13.93,13.93,0,0,0,6.71-1.74Q1419.34,829.36,1419.34,826.14Z" style="fill:#f1802d"/><path d="M1492.23,841.51H1479l-5.15-12.58h-23.43l-5.41,12.58h-13.13l21.32-50.31a8.22,8.22,0,0,1,3.56-4.09,10.23,10.23,0,0,1,5.31-1.51,10.35,10.35,0,0,1,5.38,1.51,8.22,8.22,0,0,1,3.56,4.09Zm-21.94-21-8.15-19.37-8.21,19.37Z" style="fill:#f1802d"/><path d="M1535.76,841.51h-32.49a11.08,11.08,0,0,1-5.38-1.4q-3-1.67-3-4.19V785.6h12.58v47.52h28.3Z" style="fill:#f1802d"/><path d="M797.37,900.91q0,13.85-35.64,18.87v22.36H749.15V891.83c0-1.73,1-3.12,3.07-4.2a10.8,10.8,0,0,1,5.31-1.39H774.3a31.54,31.54,0,0,1,14.54,3.56Q797.36,894.14,797.37,900.91Zm-12.58.7q0-3.21-3.78-5.24a13.91,13.91,0,0,0-6.71-1.75H761.73v16.77Q784.79,908.95,784.79,901.61Z" style="fill:#f1802d"/><path d="M858.17,942.14H843.49L826.23,924q-3.71-3.84-3.71-5.87,0-3.84,4-5.94l7.33-2.58q9.64-3.36,9.65-8,0-3.21-3.78-5.24a13.91,13.91,0,0,0-6.71-1.75H820.43v47.52H807.85V891.83q0-2.52,3.07-4.2a10.8,10.8,0,0,1,5.31-1.39H833a31.54,31.54,0,0,1,14.54,3.56q8.52,4.32,8.53,11.1,0,6.57-7.26,11.59A35.83,35.83,0,0,1,835.54,918Z" style="fill:#f1802d"/><path d="M909.59,926.77q0,7-8.38,11.53a30.09,30.09,0,0,1-29.42,0q-8.32-4.54-8.32-11.53V901.61q0-7,8.32-11.53a30.09,30.09,0,0,1,29.42,0q8.38,4.54,8.38,11.53Zm-12.57,0V901.61c0-2.14-1.29-3.89-3.85-5.24a13.6,13.6,0,0,0-13.35,0q-3.77,2-3.77,5.24v25.16q0,3.21,3.77,5.24a13.6,13.6,0,0,0,13.35,0C895.73,930.66,897,928.91,897,926.77Z" style="fill:#f1802d"/><path d="M963.54,942.14H951v-1.75a31.54,31.54,0,0,1-10.48,1.75,30.27,30.27,0,0,1-14.67-3.84q-8.38-4.54-8.39-11.53V901.61q0-7,8.39-11.53a30.27,30.27,0,0,1,14.67-3.84,29.68,29.68,0,0,1,14.61,3.84q8.17,4.47,8.45,11.53H951a7.58,7.58,0,0,0-3.91-5.24,13.14,13.14,0,0,0-6.57-1.75,13.94,13.94,0,0,0-6.71,1.75q-3.76,2-3.77,5.24v25.16q0,3.21,3.77,5.24a13.74,13.74,0,0,0,13.42,0c2.52-1.35,3.77-3.1,3.77-5.24v-8.39H940.48V910h14.68a10.8,10.8,0,0,1,5.31,1.39q3.07,1.68,3.07,4.2Z" style="fill:#f1802d"/><path d="M1024.34,942.14h-14.68L992.4,924q-3.71-3.84-3.7-5.87,0-3.84,4-5.94l7.34-2.58q9.65-3.36,9.64-8c0-2.14-1.25-3.89-3.77-5.24a13.91,13.91,0,0,0-6.71-1.75H986.6v47.52H974V891.83q0-2.52,3.08-4.2a10.8,10.8,0,0,1,5.31-1.39h16.77a31.57,31.57,0,0,1,14.54,3.56q8.52,4.32,8.52,11.1,0,6.57-7.26,11.59a35.71,35.71,0,0,1-13.26,5.52Z" style="fill:#f1802d"/><path d="M1073.12,942.14h-32.5a11.08,11.08,0,0,1-5.38-1.4c-2-1.11-3-2.51-3-4.19V891.83c0-1.68,1-3.08,3-4.2a11.18,11.18,0,0,1,5.38-1.39h32.5v8.38h-28.31V910h17.82v8.38h-17.82v15.38h28.31Z" style="fill:#f1802d"/><path d="M1129.72,926.77q0,7-8.39,11.53a30.27,30.27,0,0,1-14.67,3.84,29.68,29.68,0,0,1-14.61-3.84q-8.1-4.47-8.45-11.53h12.58a7.83,7.83,0,0,0,4,5.24,12.52,12.52,0,0,0,6.5,1.75,12,12,0,0,0,7.06-2.17,7.26,7.26,0,0,0,3.42-6.22q0-3.21-3.77-5.24a13.83,13.83,0,0,0-6.71-1.75,30.34,30.34,0,0,1-14.68-3.84Q1083.6,910,1083.6,903v-1.4q0-7,8.38-11.53a30.34,30.34,0,0,1,14.68-3.84,29.64,29.64,0,0,1,14.6,3.84q8.12,4.47,8.46,11.53h-12.58a7.86,7.86,0,0,0-4-5.24,12.54,12.54,0,0,0-6.5-1.75,11.91,11.91,0,0,0-7.06,2.17,7.26,7.26,0,0,0-3.42,6.22c0,2.14,1.25,3.89,3.77,5.24a13.91,13.91,0,0,0,6.71,1.75,30.27,30.27,0,0,1,14.67,3.84q8.39,4.54,8.39,11.53Z" style="fill:#f1802d"/><path d="M1186.32,926.77q0,7-8.38,11.53a30.34,30.34,0,0,1-14.68,3.84,29.64,29.64,0,0,1-14.6-3.84q-8.12-4.47-8.46-11.53h12.58a7.86,7.86,0,0,0,4,5.24,12.54,12.54,0,0,0,6.5,1.75,12,12,0,0,0,7.06-2.17,7.26,7.26,0,0,0,3.42-6.22c0-2.14-1.25-3.89-3.77-5.24a13.8,13.8,0,0,0-6.71-1.75,30.27,30.27,0,0,1-14.67-3.84q-8.38-4.54-8.39-11.53v-1.4q0-7,8.39-11.53a30.27,30.27,0,0,1,14.67-3.84,29.68,29.68,0,0,1,14.61,3.84q8.1,4.47,8.45,11.53h-12.58a7.83,7.83,0,0,0-4-5.24,12.52,12.52,0,0,0-6.5-1.75,11.93,11.93,0,0,0-7.06,2.17,7.26,7.26,0,0,0-3.42,6.22q0,3.21,3.77,5.24a13.94,13.94,0,0,0,6.71,1.75,30.34,30.34,0,0,1,14.68,3.84q8.38,4.54,8.38,11.53Z" style="fill:#f1802d"/></g></svg>