<svg xmlns="http://www.w3.org/2000/svg" viewBox="0 0 400 400"><defs><style>.cls-1{fill:#123740;}.cls-2{fill:#383838;}.cls-3{fill:#37f265;}.cls-4{fill:none;stroke:#000;stroke-miterlimit:10;}.cls-5,.cls-7,.cls-8{fill:#fff;}.cls-6{opacity:0.2;}.cls-7{opacity:0.18;}.cls-8{opacity:0.21;}</style></defs><g id="Capa_2" data-name="Capa 2"><rect class="cls-1" width="400" height="400"/></g><g id="Capa_1" data-name="Capa 1"><path class="cls-2" d="M231.64,220c-16.17-6.64-21.14-31.77-11.15-56.14s31.23-38.75,47.4-32.11S289,163.55,279,187.92,247.79,226.67,231.64,220Z"/><path class="cls-3" d="M268,385.41A270.8,270.8,0,0,0,249.64,341l.13-.06s43,29.28,98-28.78c0,0-13.71-29.92,10.57-41.4,7.89-3.72,17.49-2.77,23.58,3.47,4.05,4.11,7,10.75,5.27,21.33,0,0-4.45,20.19-25.4,21.87,0,0-35,73.78-93.71,68Z"/><path class="cls-3" d="M198.35,327.13a158.71,158.71,0,0,0,33.29-16,270.14,270.14,0,0,1,18,29.82A270.8,270.8,0,0,1,268,385.41h0c17.49,55.38,12.37,98.85,12.37,98.85a82.12,82.12,0,0,1-3.23,14.35c-6.52,21.11-25.74,57.94-80,57.2-51.15-.7-70.46-34.81-77.59-57v0a89.84,89.84,0,0,1-4.08-18.67c-5.36-28.73,4.51-67.69,16.45-101,6.12-17,12.79-32.53,18.25-44.41l0,0c6.61-14.41,11.48-23.52,11.48-23.52C182.05,324.09,198.35,327.13,198.35,327.13Z"/><path class="cls-3" d="M121,187.92c10,24.37,31.23,38.75,47.37,32.11s21.14-31.77,11.12-56.14-31.19-38.75-47.37-32.11S111,163.55,121,187.92Zm76.19-175C327.6,12.92,312,159.14,312,159.14s-1.43,102.07-80.39,152a158.71,158.71,0,0,1-33.29,16s-16.3-3-36.62-16c-29.88-19-68.48-59.37-76.8-142.68C84.93,168.49,66.81,12.92,197.19,12.92Zm70.7,118.86c-16.17-6.64-37.38,7.74-47.4,32.11s-5,49.5,11.15,56.14S269,212.29,279,187.92,284,138.42,267.89,131.78Z"/><path class="cls-2" d="M168.37,220c-16.14,6.64-37.38-7.74-47.37-32.11s-5-49.5,11.12-56.14,37.38,7.74,47.37,32.11S184.52,213.39,168.37,220Z"/><path class="cls-3" d="M52.25,305.87c54.13,57.18,96.66,29.7,98,28.85-5.46,11.88-12.13,27.42-18.25,44.41-58.7,5.85-93.7-68-93.7-68-21-1.7-25.41-21.87-25.41-21.87-1.74-10.6,1.22-17.21,5.24-21.35,6.09-6.25,15.69-7.19,23.58-3.48C66,276,52.25,305.87,52.25,305.87Z"/><path class="cls-4" d="M161.73,311.17c-29.88-19-68.48-59.37-76.8-142.68,0,0-18.12-155.57,112.26-155.57S312,159.14,312,159.14s-1.43,102.07-80.39,152a158.71,158.71,0,0,1-33.29,16S182.05,324.09,161.73,311.17Z"/><path class="cls-4" d="M179.49,163.89c10,24.37,5,49.5-11.12,56.14S131,212.29,121,187.92s-5-49.5,11.12-56.14S169.5,139.52,179.49,163.89Z"/><path class="cls-4" d="M220.49,163.89c-10,24.37-5,49.5,11.15,56.14S269,212.29,279,187.92s5-49.5-11.12-56.14S230.51,139.52,220.49,163.89Z"/><path class="cls-4" d="M268,385.41A270.8,270.8,0,0,0,249.64,341a270.14,270.14,0,0,0-18-29.82"/><path class="cls-4" d="M119.6,498.82c7.13,22.18,26.44,56.29,77.59,57,54.25.74,73.47-36.09,80-57.2a82.12,82.12,0,0,0,3.23-14.35s5.12-43.47-12.37-98.85"/><path class="cls-4" d="M150.22,334.72c-5.46,11.88-12.13,27.42-18.25,44.41-11.94,33.3-21.81,72.26-16.45,101a89.84,89.84,0,0,0,4.08,18.67"/><path class="cls-4" d="M161.73,311.17s-4.87,9.11-11.48,23.52"/><path class="cls-4" d="M150.25,334.69l0,0c-1.31.85-43.84,28.33-98-28.85,0,0,13.74-29.91-10.57-41.4-7.89-3.71-17.49-2.77-23.58,3.48-4,4.14-7,10.75-5.24,21.35,0,0,4.45,20.17,25.41,21.87,0,0,35,73.81,93.7,68"/><path class="cls-4" d="M249.77,340.93s43,29.28,98-28.78c0,0-13.71-29.92,10.57-41.4,7.89-3.72,17.49-2.77,23.58,3.47,4.05,4.11,7,10.75,5.27,21.33,0,0-4.45,20.19-25.4,21.87,0,0-35,73.78-93.71,68h0"/><path class="cls-5" d="M133.33,143.22a20.07,20.07,0,0,0-5,20.7,2.55,2.55,0,0,0,3.07,1.74,2.52,2.52,0,0,0,1.75-3.07,15,15,0,0,1,3.75-15.84,2.5,2.5,0,0,0-3.53-3.53Z"/><path class="cls-5" d="M261.52,146.29l.5.34c.35.25-.42-.36.15.12q.42.34.81.72c.26.25.5.51.74.77s.26.3.39.46-.13-.2.12.15a16.07,16.07,0,0,1,1.2,1.94c.17.32.33.64.47,1-.14-.32,0,0,.06.18s.14.38.2.57a14.91,14.91,0,0,1,.54,2.09s.11.67.07.38,0,.32,0,.38q0,.54.06,1.08c0,.39,0,.79,0,1.19,0,.2,0,.4,0,.6s-.05.31,0,0a15.56,15.56,0,0,1-.58,2.33,2.5,2.5,0,1,0,4.82,1.32A17.72,17.72,0,0,0,264,142a2.53,2.53,0,0,0-3.42.9,2.56,2.56,0,0,0,.9,3.42Z"/><path class="cls-6" d="M197.56,315.73c-17.43-2.7-73.72-42.51-73.72-42.51,8.31,22.62,57.39,47.83,71.09,54.87a15,15,0,0,1,3.77-.47c.2,0,.38,0,.58,0,1.32-.67,2.64-1.36,4-2a14.24,14.24,0,0,1,5.54-2.11,13.31,13.31,0,0,1,7.1-3.56,13.49,13.49,0,0,1,10.23-4.49,220.58,220.58,0,0,0,46.23-42S215,318.44,197.56,315.73Z"/><path class="cls-7" d="M95.8,83.17s48-55.38,101.76-55.79S301.35,83.17,301.35,83.17s-16-70.31-103.25-69.79S95.8,83.17,95.8,83.17Z"/><path class="cls-8" d="M268.55,393.69a69.59,69.59,0,0,0-2.46-9.3c-.94-2.93-1.79-5.87-2.71-8.8-.85-2.73-2.51-5-3.48-7.73a1.36,1.36,0,0,1,0-.89c-.66-1.74-1.44-3.42-2.22-5.11-.9-2-1.68-4-2.6-5.94-1.89-4-4.21-7.87-6-11.94a1.42,1.42,0,0,1-.09-.6c-.56-1.05-1.11-2.11-1.72-3.12a52.19,52.19,0,0,1-3.14-6.89,37.85,37.85,0,0,0-2.18-4.31c-.55-.74-1.1-1.47-1.71-2.14a1.56,1.56,0,0,1-.4-1.24c-1.59-2.37-3.29-4.66-4.89-7a1.49,1.49,0,0,1-.25-.61,14.47,14.47,0,0,1-1.4-2.21,14.17,14.17,0,0,1-1.37-2.06c-.16-.24-.37-.44-.51-.69a12,12,0,0,1-1.69.94,13.65,13.65,0,0,1-3.81,2.17A13.37,13.37,0,0,1,222,318.4a13.31,13.31,0,0,1-3.55,1.86,13.54,13.54,0,0,1-4.39,2.1,12.9,12.9,0,0,1-1.28.67,13.88,13.88,0,0,1-3.26,1.4,13.07,13.07,0,0,1-3.09,1.25,13.89,13.89,0,0,1-3.88,1.52,1.69,1.69,0,0,1-.93.37l.09,0s0,0-.08,0l-.27.11a4.11,4.11,0,0,1-.56.19c-.37.1-.74.19-1.1.31a4.6,4.6,0,0,1-2.65.14c-.38-.09-.75-.23-1.13-.33s-.85-.17-1.27-.28-.71-.2-1.06-.33c-.05,0-.59-.18-.33-.12-.29-.06-.58-.07-.87-.13A1.3,1.3,0,0,1,192,327a14.24,14.24,0,0,1-3.24-1.13,14.21,14.21,0,0,1-3.83-1.34,13.91,13.91,0,0,1-2-.81,14.18,14.18,0,0,1-3.17-1.37,14.76,14.76,0,0,1-2.36-1,13.81,13.81,0,0,1-3.71-1.59,13.4,13.4,0,0,1-2.66-1.48,13.66,13.66,0,0,1-2.26-1.25,12.83,12.83,0,0,1-3.3-1.82,1.44,1.44,0,0,1-.46-.29,1.33,1.33,0,0,1-.49-.29,1.36,1.36,0,0,1-.78-.45,13.23,13.23,0,0,1-1.46-.85,1.45,1.45,0,0,1-.3.56s0,0,0,.05a1.61,1.61,0,0,1-.44.88,1.52,1.52,0,0,1-.23.48,1.48,1.48,0,0,1-.16.27,11.38,11.38,0,0,1-1.27,2.05,1.58,1.58,0,0,1-.34,1.21,28.79,28.79,0,0,0-3.43,6.49c-.75,1.74-1.61,3.41-2.47,5.08a2,2,0,0,1-.14.5c-1.93,3.72-3,7.78-4.94,11.51-.85,1.68-1.84,3.3-2.66,5a12.42,12.42,0,0,1-1.09,2.93,1.19,1.19,0,0,1-.61.56c-.14.47-.3.93-.4,1.41a1.21,1.21,0,0,1-.32.59,34.07,34.07,0,0,1-3,8.57c-1,2.06-1.94,4.14-2.85,6.22a40,40,0,0,1-2.69,7.68c-.69,1.66-1.42,3.32-2.18,5-.55,1.57-1.09,3.15-1.6,4.74-.78,2.38-1.32,5.31-2.64,7.57-.31.94-.61,1.89-1,2.82,8-12.56,38.16-56.4,69.57-56.84,30.25-.43,61.46,40.78,71.47,55.24A.34.34,0,0,0,268.55,393.69Z"/></g></svg>