<svg xmlns="http://www.w3.org/2000/svg" viewBox="0 0 1920 1080"><g id="Capa_1" data-name="Capa 1"><rect width="1920" height="1080" style="fill:#123740"/></g><g id="Capa_2" data-name="Capa 2"><path d="M983,299.5c16.13-39.21,50.25-62.35,76.23-51.67s34,51.14,18,90.35-50.25,62.36-76.23,51.67S966.84,338.72,983,299.5Z" style="fill:#383838"/><path d="M1030,584.42s69.26,47.11,157.7-46.37c0,0-22.06-48.14,17-66.62,12.7-6,28.14-4.47,37.94,5.58,6.52,6.67,11.23,17.31,8.48,34.37,0,0-7.15,32.45-40.88,35.2,0,0-56.33,118.78-150.84,109.36a445.72,445.72,0,0,0-29.56-71.42Z" style="fill:#37f265"/><path d="M1029.88,584.52a445.72,445.72,0,0,1,29.56,71.42c28.19,89.18,20,159.08,20,159.08a131.84,131.84,0,0,1-5.2,23.09c-10.49,34-41.42,93.24-128.73,92.07-82.36-1.13-113.39-56-124.86-91.73v0a144.46,144.46,0,0,1-6.57-30c-8.62-46.23,7.21-109,26.48-162.51,9.85-27.36,20.58-52.36,29.36-71.48l0,0c10.64-23.18,18.48-37.84,18.48-37.84,32.7,20.83,58.93,25.73,58.93,25.73a258.61,258.61,0,0,0,53.58-25.73A434.71,434.71,0,0,1,1029.88,584.52Z" style="fill:#37f265"/><path d="M917,299.5c-16.08-39.21-50.25-62.35-76.23-51.67s-34,51.14-17.94,90.35,50.25,62.36,76.28,51.67S933.11,338.72,917,299.5ZM945.46,56.55c209.87,0,184.82,235.31,184.82,235.31S1128,456.08,1000.91,536.48a258.61,258.61,0,0,1-53.58,25.73s-26.23-4.9-58.93-25.73c-48.09-30.59-110.2-95.55-123.58-229.62C764.82,306.86,735.65,56.55,945.46,56.55Zm113.73,191.28c-26-10.68-60.1,12.46-76.23,51.67s-8.08,79.67,17.95,90.35,60.1-12.45,76.23-51.67S1085.22,258.47,1059.19,247.83Z" style="fill:#37f265"/><path d="M840.75,247.83c26-10.68,60.15,12.46,76.23,51.67s8.09,79.67-17.89,90.35-60.15-12.45-76.28-51.67S814.77,258.47,840.75,247.83Z" style="fill:#383838"/><path d="M834,1108.76C796,1079,820.11,843,820.6,838.45c11.47,35.69,42.5,90.6,124.86,91.73,87.31,1.17,118.24-58.1,128.73-92.07l.89.3s25,240.3-13.44,270.35c0,0,108.44,6.67,93.44,48.39-11.91,33.09-78.53,4.21-105.49-9.17a26.87,26.87,0,0,1-14.22-17.45C1024.63,1089.06,985.71,951,945.46,959c-33.92-1.62-74.07,133-85.1,172.41A25.74,25.74,0,0,1,847,1147.54c-26.33,13.14-94.37,43.09-106.43,9.61C725.6,1115.43,834,1108.76,834,1108.76Z" style="fill:#37f265"/><path d="M712.21,528c87.12,92,155.55,47.74,157.66,46.37-8.78,19.12-19.51,44.12-29.36,71.48-94.47,9.41-150.8-109.37-150.8-109.37-33.77-2.7-40.88-35.2-40.88-35.2-2.8-17,2-27.7,8.43-34.32,9.81-10,25.25-11.56,37.94-5.58C734.32,479.81,712.21,528,712.21,528Z" style="fill:#37f265"/><path d="M888.4,536.48c-48.09-30.59-110.2-95.55-123.58-229.62,0,0-29.17-250.31,180.64-250.31s184.82,235.31,184.82,235.31S1128,456.08,1000.91,536.48a258.61,258.61,0,0,1-53.58,25.73S921.1,557.31,888.4,536.48Z" style="fill:none;stroke:#000;stroke-miterlimit:10"/><path d="M917,299.5c16.13,39.22,8.09,79.67-17.89,90.35s-60.15-12.45-76.28-51.67-8-79.71,17.94-90.35S900.9,260.29,917,299.5Z" style="fill:none;stroke:#000;stroke-miterlimit:10"/><path d="M983,299.5c-16.12,39.22-8.08,79.67,17.95,90.35s60.1-12.45,76.23-51.67,8.08-79.71-18-90.35S999.09,260.29,983,299.5Z" style="fill:none;stroke:#000;stroke-miterlimit:10"/><path d="M820.6,838.45c11.47,35.69,42.5,90.6,124.86,91.73,87.31,1.17,118.24-58.1,128.73-92.07a131.84,131.84,0,0,0,5.2-23.09s8.24-69.9-20-159.08a445.72,445.72,0,0,0-29.56-71.42,434.71,434.71,0,0,0-29-48" style="fill:none;stroke:#000;stroke-miterlimit:10"/><path d="M869.87,574.37c-8.78,19.12-19.51,44.12-29.36,71.48-19.27,53.53-35.1,116.28-26.48,162.51a144.46,144.46,0,0,0,6.57,30" style="fill:none;stroke:#000;stroke-miterlimit:10"/><path d="M888.4,536.48s-7.84,14.66-18.48,37.84" style="fill:none;stroke:#000;stroke-miterlimit:10"/><path d="M820.6,838.41v0C820.11,843,796,1079,834,1108.76c0,0-108.43,6.67-93.43,48.39,12.06,33.48,80.1,3.53,106.43-9.61a25.74,25.74,0,0,0,13.33-16.18c11-39.46,51.18-174,85.1-172.41a1.18,1.18,0,0,1,.59,0" style="fill:none;stroke:#000;stroke-miterlimit:10"/><path d="M1075.08,838.41s25,240.3-13.44,270.35c0,0,108.44,6.67,93.44,48.39-11.91,33.09-78.53,4.21-105.49-9.17a26.87,26.87,0,0,1-14.22-17.45C1024.63,1089.06,985.71,951,945.46,959h-.14" style="fill:none;stroke:#000;stroke-miterlimit:10"/><path d="M869.92,574.32l0,0C867.76,575.74,799.33,620,712.21,528c0,0,22.11-48.19-17-66.62-12.69-6-28.13-4.47-37.94,5.58-6.47,6.62-11.23,17.31-8.43,34.32,0,0,7.11,32.5,40.88,35.2,0,0,56.33,118.78,150.8,109.37" style="fill:none;stroke:#000;stroke-miterlimit:10"/><path d="M1030,584.42s69.26,47.11,157.7-46.37c0,0-22.06-48.14,17-66.62,12.7-6,28.14-4.47,37.94,5.58,6.52,6.67,11.23,17.31,8.48,34.37,0,0-7.15,32.45-40.88,35.2,0,0-56.33,118.78-150.84,109.36" style="fill:none;stroke:#000;stroke-miterlimit:10"/><path d="M843.76,267.29A30.78,30.78,0,0,0,836,299.12a2.58,2.58,0,0,0,3.08,1.75,2.53,2.53,0,0,0,1.74-3.08,25.81,25.81,0,0,1,6.44-27c2.34-2.22-1.2-5.75-3.54-3.54Z" style="fill:#fff"/><path d="M1049.75,269.84c7.87,5.26,11.25,15.86,8.25,24.75-1,3.05,3.79,4.36,4.82,1.33,3.74-11.08-.88-23.94-10.54-30.39-2.69-1.8-5.19,2.53-2.53,4.31Z" style="fill:#fff"/><path d="M946.06,543.84C918,539.5,827.41,475.42,827.41,475.42c13.38,36.4,92.37,77,114.41,88.3a24.77,24.77,0,0,1,6.06-.75c.33,0,.62,0,.94,0,2.13-1.08,4.26-2.19,6.41-3.24a22.83,22.83,0,0,1,8.91-3.39,21.21,21.21,0,0,1,11.43-5.72A21.68,21.68,0,0,1,992,543.43c46-31.1,74.39-67.51,74.39-67.51S974.11,548.19,946.06,543.84Z" style="opacity:0.2"/><path d="M782.3,169.58S859.57,80.46,946.06,79.8s167,89.78,167,89.78S1087.29,56.44,946.92,57.27,782.3,169.58,782.3,169.58Z" style="fill:#fff;opacity:0.18"/><path d="M1060.3,669.29a113.62,113.62,0,0,0-4-15c-1.52-4.71-2.88-9.44-4.36-14.16-1.37-4.39-4-8.13-5.6-12.44a2.09,2.09,0,0,1,0-1.44c-1.07-2.79-2.32-5.5-3.58-8.22-1.45-3.16-2.71-6.41-4.18-9.56-3.06-6.49-6.78-12.66-9.71-19.21a2.53,2.53,0,0,1-.15-1c-.9-1.7-1.78-3.4-2.76-5a83.22,83.22,0,0,1-5.06-11.08,60.17,60.17,0,0,0-3.51-6.94,41.74,41.74,0,0,0-2.74-3.44,2.61,2.61,0,0,1-.65-2c-2.56-3.8-5.3-7.5-7.87-11.21a2.36,2.36,0,0,1-.41-1,23.23,23.23,0,0,1-2.24-3.57,23.55,23.55,0,0,1-2.21-3.31c-.26-.38-.59-.71-.82-1.11a504.81,504.81,0,0,0-8.86,5,320.93,320.93,0,0,1-12,6.45,21.72,21.72,0,0,1-7.06,3.39,20.19,20.19,0,0,1-2.07,1.07,253.58,253.58,0,0,1-10.22,4.28A22.87,22.87,0,0,1,954,562.3a2.66,2.66,0,0,1-1.5.58l.16,0c.05,0,0,0-.15.06l-.43.19a9.43,9.43,0,0,1-.9.29c-.59.16-1.18.31-1.77.5a7.46,7.46,0,0,1-4.26.23c-.62-.15-1.21-.38-1.82-.53s-1.37-.27-2-.46-1.15-.32-1.71-.52c-.08,0-1-.29-.53-.19-.46-.11-.94-.11-1.4-.22a2.16,2.16,0,0,1-.59-.29,22.82,22.82,0,0,1-5.22-1.83,23.11,23.11,0,0,1-6.16-2.15,22.7,22.7,0,0,1-3.19-1.32,22.1,22.1,0,0,1-5.1-2.19,22.41,22.41,0,0,1-3.79-1.67,22,22,0,0,1-6-2.56,2511.31,2511.31,0,0,0-7.91-4.39,20.79,20.79,0,0,1-5.31-2.92,2.18,2.18,0,0,1-.74-.47,2.12,2.12,0,0,1-.78-.47,2.15,2.15,0,0,1-1.26-.72,19.92,19.92,0,0,1-2.34-1.37,2.42,2.42,0,0,1-.49.89s0,.07,0,.1a2.53,2.53,0,0,1-.7,1.4,2.31,2.31,0,0,1-.38.79,2,2,0,0,1-.25.42,2.34,2.34,0,0,1-.52,1.1,2.24,2.24,0,0,1-.44.66,2.33,2.33,0,0,1-1.09,1.54,2.55,2.55,0,0,1-.53,2c-2.45,3.11-4,6.85-5.53,10.45-1.21,2.8-2.59,5.48-4,8.17a2.49,2.49,0,0,1-.23.8c-3.09,6-4.88,12.52-7.94,18.53-1.38,2.7-3,5.32-4.28,8.05a20.36,20.36,0,0,1-1.76,4.71,1.83,1.83,0,0,1-1,.91c-.21.75-.48,1.49-.64,2.26a1.9,1.9,0,0,1-.5.95,55,55,0,0,1-4.88,13.79c-1.61,3.32-3.13,6.66-4.59,10-.84,4.3-2.63,8.29-4.33,12.35-1.12,2.67-2.28,5.34-3.51,8-.87,2.53-1.75,5.07-2.58,7.62-1.25,3.84-2.11,8.55-4.24,12.19-.5,1.52-1,3-1.53,4.55,12.89-20.23,61.41-90.77,112-91.48,48.67-.69,98.9,65.62,115,88.9C1060.31,669.4,1060.31,669.34,1060.3,669.29Z" style="fill:#fff;opacity:0.21"/><path d="M847.07,887.32s96.13,61,200.95,0c0,0-40.84,44.53-100.48,41.19S873.81,907.87,847.07,887.32Z" style="opacity:0.21"/></g><g id="Capa_3" data-name="Capa 3"><rect x="333" y="520" width="1258" height="485" style="fill:#fff;opacity:0.9500000000000001"/></g><g id="Capa_5" data-name="Capa 5"><path d="M458.28,708.58q0,12.28-14.75,20.27a53.18,53.18,0,0,1-25.8,6.76,52.06,52.06,0,0,1-25.68-6.76Q377.8,721,377.19,708.58H399.3q1.11,5.65,7,9.22a21.89,21.89,0,0,0,11.42,3.07,21,21,0,0,0,12.41-3.81q6-4.17,6-10.94,0-5.64-6.63-9.21a24.36,24.36,0,0,0-11.8-3.07,53.18,53.18,0,0,1-25.8-6.76q-14.74-8-14.74-20.27v-2.46q0-12.29,14.74-20.27a53.29,53.29,0,0,1,25.8-6.76,52.17,52.17,0,0,1,25.68,6.76q14.25,7.86,14.87,20.27H436.16q-1.1-5.65-7-9.21a21.91,21.91,0,0,0-11.43-3.08,21.09,21.09,0,0,0-12.41,3.81q-6,4.18-6,10.94,0,5.66,6.64,9.21a24.32,24.32,0,0,0,11.79,3.07,53.29,53.29,0,0,1,25.8,6.76q14.75,8,14.75,20.27Z" style="fill:#f1802d"/><path d="M534.21,668.77H510.62v66.84h-17.7V668.77H469.33V657h64.88Z" style="fill:#f1802d"/><path d="M607.68,735.61H589l-7.2-17.69h-33l-7.46,17.69H522.78l29.86-70.77Q556,657,565.29,657t12.53,7.86ZM577,706.12,565.3,678.77l-11.54,27.35Z" style="fill:#f1802d"/><path d="M682.93,735.61H662.35L638,710.18q-5.16-5.4-5.16-8.23,0-5.54,7.61-9.09,7.13-2.72,14.26-5.53c5.07-2.3,7.61-5.2,7.61-8.73q0-4.43-5.4-7.37a18.93,18.93,0,0,0-9.34-2.46H629.92v66.84H612.23V664.84c0-2.37,1.43-4.34,4.3-5.89a15.28,15.28,0,0,1,7.49-2h23.59a44.93,44.93,0,0,1,20.52,5q11.91,6.13,11.92,15.6,0,9.23-10.2,16.22a50.17,50.17,0,0,1-18.68,7.86Z" style="fill:#f1802d"/><path d="M754.38,668.77H730.79v66.84H713.1V668.77H689.51V657h64.87Z" style="fill:#f1802d"/><path d="M905.5,663.12q0,24.33-62.66,33.18v39.31H820.72V647.15q0-4.54,5.41-7.37a18.93,18.93,0,0,1,9.34-2.46H865a55.53,55.53,0,0,1,25.55,6.27Q905.5,651.21,905.5,663.12Zm-22.12,1.23q0-5.65-6.63-9.21A24.36,24.36,0,0,0,865,652.06H842.84v29.49Q883.39,677.26,883.38,664.35Z" style="fill:#f1802d"/><path d="M981.43,735.61H935.72a15.26,15.26,0,0,1-7.49-2c-2.87-1.56-4.3-3.52-4.3-5.9V657h17.69v66.84h39.81Z" style="fill:#f1802d"/><path d="M1066.33,735.61h-18.67l-7.2-17.69h-33L1000,735.61H981.43l29.85-70.77q3.32-7.86,12.66-7.86t12.53,7.86Zm-30.71-29.49-11.68-27.35-11.54,27.35Z" style="fill:#f1802d"/><path d="M1136.71,657l-31.07,41.36v37.27H1088V698.26L1057,657h20.73l19,25.6,19.32-25.6Z" style="fill:#f1802d"/><path d="M1159,735.61h-17.7V657H1159Z" style="fill:#f1802d"/><path d="M1242.27,727.75c0,2.38-1.31,4.34-3.93,5.9a13.71,13.71,0,0,1-7.12,2q-6.49,0-11.41-7.88l-24.72-39.85v47.73h-17.7V664.84c0-2.37,1.31-4.34,3.94-5.89a13.72,13.72,0,0,1,7.12-2q6.51,0,11.43,7.86l24.69,39.81V657h17.7Z" style="fill:#f1802d"/><path d="M1325.57,735.61h-17.7v-2.45a44.35,44.35,0,0,1-14.74,2.45,42.7,42.7,0,0,1-20.64-5.4q-11.79-6.39-11.8-16.22V678.6q0-9.83,11.8-16.21a42.61,42.61,0,0,1,20.64-5.41,41.49,41.49,0,0,1,20.52,5.41q11.55,6.25,11.92,16.21h-17.7q-.73-4.54-5.53-7.37a18.21,18.21,0,0,0-9.21-2.46,18.93,18.93,0,0,0-9.34,2.46q-5.4,3-5.4,7.37V714q0,4.43,5.4,7.37a19,19,0,0,0,18.68,0q5.4-3,5.4-7.37v-11.8h-14.74V690.4h20.64a15.33,15.33,0,0,1,7.5,2c2.86,1.56,4.3,3.53,4.3,5.9Z" style="fill:#f1802d"/><path d="M1456.78,668.77h-23.59v66.84H1415.5V668.77h-23.59V657h64.87Z" style="fill:#f1802d"/><path d="M1528,714q0,9.82-11.67,16.22a42.37,42.37,0,0,1-41.4,0q-11.68-6.39-11.68-16.22V678.6q0-9.83,11.68-16.21a42.31,42.31,0,0,1,41.4,0Q1528,668.78,1528,678.6Zm-17.69,0V678.6q0-4.43-5.28-7.37a19.19,19.19,0,0,0-18.8,0q-5.28,3-5.28,7.37V714q0,4.43,5.28,7.37a19.19,19.19,0,0,0,18.8,0Q1510.35,718.41,1510.35,714Z" style="fill:#f1802d"/><path d="M528,912.54H510.31v-2.46a44.2,44.2,0,0,1-14.75,2.46,42.66,42.66,0,0,1-20.64-5.41q-11.79-6.39-11.79-16.22V855.53q0-9.82,11.79-16.22a42.77,42.77,0,0,1,20.64-5.41,41.59,41.59,0,0,1,20.52,5.41q11.55,6.27,11.92,16.22H510.31q-.74-4.54-5.53-7.37a18.27,18.27,0,0,0-9.22-2.46,18.9,18.9,0,0,0-9.33,2.46q-5.42,2.94-5.41,7.37v35.38q0,4.43,5.41,7.37a18.94,18.94,0,0,0,18.67,0q5.4-2.94,5.41-7.37V879.12H495.56v-11.8h20.65a15.3,15.3,0,0,1,7.49,2q4.31,2.33,4.3,5.9Z" style="fill:#f1802d"/><path d="M603.93,912.54H558.22a15.28,15.28,0,0,1-7.49-2q-4.31-2.33-4.3-5.9v-62.9c0-2.38,1.43-4.34,4.3-5.9a15.28,15.28,0,0,1,7.49-2h45.71v11.8H564.12v21.62h25.06v11.8H564.12v21.62h39.81Z" style="fill:#f1802d"/><path d="M687.23,904.67q0,3.57-3.93,5.9a13.71,13.71,0,0,1-7.11,2q-6.51,0-11.42-7.88l-24.72-39.85v47.73H622.36V841.77c0-2.38,1.31-4.34,3.93-5.9a13.76,13.76,0,0,1,7.13-2q6.51,0,11.42,7.87l24.7,39.8V833.9h17.69Z" style="fill:#f1802d"/><path d="M763.16,912.54H717.45a15.28,15.28,0,0,1-7.49-2q-4.31-2.33-4.3-5.9v-62.9c0-2.38,1.43-4.34,4.3-5.9a15.28,15.28,0,0,1,7.49-2h45.71v11.8H723.35v21.62h25.06v11.8H723.35v21.62h39.81Z" style="fill:#f1802d"/><path d="M852.29,912.54H831.72L807.39,887.1q-5.16-5.4-5.16-8.23,0-5.52,7.62-9.09,7.13-2.7,14.25-5.53,7.62-3.43,7.62-8.72,0-4.42-5.41-7.37A18.93,18.93,0,0,0,817,845.7H799.28v66.84H781.59V841.77c0-2.38,1.43-4.34,4.3-5.9a15.28,15.28,0,0,1,7.49-2H817a44.87,44.87,0,0,1,20.52,5q11.91,6.15,11.92,15.6,0,9.23-10.2,16.22a50.35,50.35,0,0,1-18.68,7.87Z" style="fill:#f1802d"/><path d="M937.25,912.54H918.58l-7.2-17.7h-33l-7.46,17.7H852.35l29.86-70.77q3.31-7.86,12.66-7.87t12.53,7.87Zm-30.71-29.49-11.67-27.36-11.54,27.36Z" style="fill:#f1802d"/><path d="M990.7,845.7H967.11v66.84H949.42V845.7H925.83V833.9H990.7Z" style="fill:#f1802d"/><path d="M1059.26,912.54h-45.71a15.28,15.28,0,0,1-7.49-2q-4.3-2.33-4.3-5.9v-62.9c0-2.38,1.43-4.34,4.3-5.9a15.28,15.28,0,0,1,7.49-2h45.71v11.8h-39.81v21.62h25.07v11.8h-25.07v21.62h39.81Z" style="fill:#f1802d"/><path d="M1214.07,885.51q0,12.29-14.75,20.27a53.29,53.29,0,0,1-25.8,6.76,52.17,52.17,0,0,1-25.68-6.76q-14.25-7.86-14.86-20.27h22.11c.74,3.76,3.08,6.84,7,9.21a21.87,21.87,0,0,0,11.42,3.07,21,21,0,0,0,12.41-3.81q6-4.17,6-10.93,0-5.65-6.63-9.22a24.47,24.47,0,0,0-11.8-3.07,53.18,53.18,0,0,1-25.8-6.76Q1133,856,1133,843.73v-2.45q0-12.3,14.74-20.28a53.28,53.28,0,0,1,25.8-6.75A52.16,52.16,0,0,1,1199.2,821q14.25,7.88,14.87,20.28H1192q-1.11-5.65-7-9.22a21.9,21.9,0,0,0-11.43-3.07,21,21,0,0,0-12.41,3.81q-6,4.17-6,10.93,0,5.65,6.64,9.22a24.32,24.32,0,0,0,11.79,3.07,53.18,53.18,0,0,1,25.8,6.76q14.75,8,14.75,20.27Z" style="fill:#f1802d"/><path d="M1290,845.7h-23.59v66.84h-17.7V845.7h-23.59V833.9H1290Z" style="fill:#f1802d"/><path d="M1363.47,912.54H1344.8l-7.2-17.7h-33l-7.46,17.7h-18.54l29.86-70.77q3.32-7.86,12.65-7.87t12.53,7.87Zm-30.71-29.49-11.67-27.36-11.54,27.36Z" style="fill:#f1802d"/><path d="M1416.92,845.7h-23.59v66.84h-17.7V845.7H1352V833.9h64.88Z" style="fill:#f1802d"/><path d="M1492.85,890.91q0,9.84-11.8,16.22a42.61,42.61,0,0,1-20.64,5.41,41.49,41.49,0,0,1-20.52-5.41q-11.43-6.27-11.92-16.22h17.7a10.86,10.86,0,0,0,5.53,7.37,17.79,17.79,0,0,0,9.21,2.46,17.18,17.18,0,0,0,10.14-3.25,10,10,0,0,0,4.6-8.54q0-4.43-5.4-7.38a19,19,0,0,0-9.34-2.45,39.74,39.74,0,0,1-21.25-5.9Q1428,866.47,1428,855.53q0-9.82,11.8-16.22a42.72,42.72,0,0,1,20.64-5.41,41.59,41.59,0,0,1,20.52,5.41q11.43,6.27,11.92,16.22h-17.7a10.86,10.86,0,0,0-5.53-7.37,17.79,17.79,0,0,0-9.21-2.46,17,17,0,0,0-10,3.07,10.34,10.34,0,0,0-4.79,8.72q0,4.43,5.4,7.38a19,19,0,0,0,9.34,2.45,39.8,39.8,0,0,1,21.26,5.9Q1492.84,880,1492.85,890.91Z" style="fill:#f1802d"/></g></svg>