<svg xmlns="http://www.w3.org/2000/svg" viewBox="0 0 668.08 671.56"><g id="Capa_4" data-name="Capa 4"><path d="M1292.86,557.46s40.31,43.25-16.58,61l-2.35-.31a313.71,313.71,0,0,0,18.68-60.7Z" transform="translate(-646.13 -159.95)" style="fill:#f1802d"/><path d="M1247.51,322.29s59.14,1.23,32.18,54.37l-3.56,1.44a314.07,314.07,0,0,0-29-55.53Z" transform="translate(-646.13 -159.95)" style="fill:#f1802d"/><path d="M1166.05,752.37l1.46,2s-.79,59.14-54.14,32.56l-7.15-1.15A312.44,312.44,0,0,0,1166.05,752.37Z" transform="translate(-646.13 -159.95)" style="fill:#f1802d"/><path d="M1096.72,197.89l-1.1,2.87a312.6,312.6,0,0,0-60.09-16.22l.62-3.56C1040.45,177.16,1080,144.11,1096.72,197.89Z" transform="translate(-646.13 -159.95)" style="fill:#f1802d"/><path d="M935.55,807l-.49,3.2s-43.25,40.31-60.95-16.6l.82-2.18A312.62,312.62,0,0,0,935.55,807Z" transform="translate(-646.13 -159.95)" style="fill:#f1802d"/><path d="M851.64,206.73l.89,2a312.81,312.81,0,0,0-53.7,31.36C799,231.54,802.16,184.42,851.64,206.73Z" transform="translate(-646.13 -159.95)" style="fill:#f1802d"/><path d="M728.7,680.89c-7.69.07-56.27-1.39-34.88-52l4-.26A315.27,315.27,0,0,0,728.7,680.89Z" transform="translate(-646.13 -159.95)" style="fill:#f1802d"/><path d="M684.09,391.4l1.66.59a314.32,314.32,0,0,0-14.53,60.85l-3.74-.49S627.18,409.08,684.09,391.4Z" transform="translate(-646.13 -159.95)" style="fill:#f1802d"/><path d="M1276.13,378.1A315.23,315.23,0,1,1,668.38,495.43a319.68,319.68,0,0,1,2.84-42.59,315.29,315.29,0,0,1,604.91-74.74Z" transform="translate(-646.13 -159.95)" style="fill:none;stroke:#f1802d;stroke-miterlimit:10;stroke-width:15px"/><circle cx="337.41" cy="338.04" r="256.23" style="fill:none;stroke:#f1802d;stroke-miterlimit:10;stroke-width:15px"/><path d="M1035.76,181.32s.13-.13.39-.34c4.3-3.82,43.86-36.87,60.57,16.91" transform="translate(-646.13 -159.95)" style="fill:none;stroke:#f1802d;stroke-miterlimit:10;stroke-width:15px"/><path d="M1247.51,322.29s59.14,1.23,32.18,54.37" transform="translate(-646.13 -159.95)" style="fill:none;stroke:#f1802d;stroke-miterlimit:10;stroke-width:15px"/><path d="M1292.86,557.46s40.31,43.25-16.58,61" transform="translate(-646.13 -159.95)" style="fill:none;stroke:#f1802d;stroke-miterlimit:10;stroke-width:15px"/><path d="M1167.51,754.4s-.79,59.14-54.14,32.56" transform="translate(-646.13 -159.95)" style="fill:none;stroke:#f1802d;stroke-miterlimit:10;stroke-width:15px"/><path d="M935.06,810.15s-43.25,40.31-60.95-16.6" transform="translate(-646.13 -159.95)" style="fill:none;stroke:#f1802d;stroke-miterlimit:10;stroke-width:15px"/><path d="M729.7,680.86s-.36,0-1,0c-7.69.07-56.27-1.39-34.88-52" transform="translate(-646.13 -159.95)" style="fill:none;stroke:#f1802d;stroke-miterlimit:10;stroke-width:15px"/><path d="M667.48,452.35s-40.3-43.27,16.61-61" transform="translate(-646.13 -159.95)" style="fill:none;stroke:#f1802d;stroke-miterlimit:10;stroke-width:15px"/><path d="M798.8,241.35s0-.46,0-1.28c.15-8.53,3.33-55.65,52.81-33.34" transform="translate(-646.13 -159.95)" style="fill:none;stroke:#f1802d;stroke-miterlimit:10;stroke-width:15px"/></g><g id="Capa_5" data-name="Capa 5"><path d="M838.41,368.69l283.12,287.1s44.28,21.74,20.4-23.59L856.85,354.86s-3.08,0-4.61-6.14c0,0-4.61-16.91-27.66-13.83,0,0-10.76,10.75,4.61,27.65C829.19,362.54,832.26,362.54,838.41,368.69Z" transform="translate(-646.13 -159.95)" style="fill:#f1802d"/><path d="M1132,368.43,848.85,655.53s-44.28,21.74-20.4-23.59L1113.53,354.6s3.08,0,4.61-6.15c0,0,4.61-16.9,27.66-13.82,0,0,10.76,10.75-4.61,27.65C1141.19,362.28,1138.12,362.28,1132,368.43Z" transform="translate(-646.13 -159.95)" style="fill:#f1802d"/><path d="M891.25,508.59a27.51,27.51,0,0,1-26.83,26.83H842.25a10.77,10.77,0,0,1-10.5-10.5V450.26a10.77,10.77,0,0,1,10.5-10.5h16.33a26.64,26.64,0,0,1,18.67,7.58q8.18,7.59,8.17,18.08A24.22,24.22,0,0,1,876.2,485a26,26,0,0,1,10.85,9.69A25.22,25.22,0,0,1,891.25,508.59Zm-22.17-42a11,11,0,0,0-10.5-10.5h-10.5v25.43Q869.08,477.91,869.08,466.59Zm5.84,42a11,11,0,0,0-10.5-10.5H848.08v21h16.34a11,11,0,0,0,10.5-10.5Z" transform="translate(-646.13 -159.95)" style="fill:#f1802d"/><path d="M1009.48,386.39a26.84,26.84,0,0,1-53.67,0v-42a26.84,26.84,0,0,1,53.67,0Zm-16.33,0v-42a10.5,10.5,0,0,0-21,0v42a10.5,10.5,0,0,0,21,0Z" transform="translate(-646.13 -159.95)" style="fill:#f1802d"/><path d="M1132.86,513.39a26.84,26.84,0,0,1-53.67,0v-42a26.84,26.84,0,0,1,53.67,0Zm-16.34,0v-42a10.5,10.5,0,0,0-21,0v42a10.5,10.5,0,0,0,21,0Z" transform="translate(-646.13 -159.95)" style="fill:#f1802d"/><path d="M1029.61,662.22h-16.34v-47.6l-13.53,37.45q-3.62,10.15-10.38,10.15T979,652.07l-13.53-37.45v47.6H949.11V577.06a10.55,10.55,0,0,1,2.9-7.29,9.1,9.1,0,0,1,7-3.21q6.51,0,10.12,10.17l20.18,55.85,20.2-55.89q3.63-10.12,10.18-10.13a9.17,9.17,0,0,1,7,3.21,10.53,10.53,0,0,1,2.93,7.29Z" transform="translate(-646.13 -159.95)" style="fill:#f1802d"/></g></svg>