<svg xmlns="http://www.w3.org/2000/svg" viewBox="0 0 440 230"><g id="Capa_1" data-name="Capa 1"><rect width="440" height="230" style="fill:#123740"/></g><g id="Capa_2" data-name="Capa 2"><path d="M135.58,151H108.92a7.69,7.69,0,0,1-7.5-7.5V82.71h11.66v56.66h22.5Z" style="fill:#f1802d"/><path d="M167.83,151h-21.5a6.4,6.4,0,0,1-6.16-6.17V102.21A6.42,6.42,0,0,1,146.33,96h21.5v9.67h-18v13h11.34v9.66H149.83v13h18Z" style="fill:#f1802d"/><path d="M208.5,96l-13.75,49.08q-1.67,5.92-6.5,5.92t-6.5-5.92L168,96h10.12l10.13,36.14L198.38,96Z" style="fill:#f1802d"/><path d="M236.33,151h-21.5a6.4,6.4,0,0,1-6.16-6.17V102.21A6.42,6.42,0,0,1,214.83,96h21.5v9.67h-18v13h11.34v9.66H218.33v13h18Z" style="fill:#f1802d"/><path d="M270.67,151h-21.5a6.4,6.4,0,0,1-6.17-6.17V96h9.67v45.33h18Z" style="fill:#f1802d"/><path d="M338.58,131.87A19.65,19.65,0,0,1,319.42,151,17.77,17.77,0,0,1,305.83,145,20.41,20.41,0,0,1,300.25,131h11.58a10.88,10.88,0,0,0,2.25,5.67,6.48,6.48,0,0,0,5.34,2.66,6.68,6.68,0,0,0,5.58-2.91,10.42,10.42,0,0,0,1.92-6.25,7.86,7.86,0,0,0-7.5-7.5h-5V111h5a6.66,6.66,0,0,0,5.58-2.92,10.4,10.4,0,0,0,1.92-6.25,7.88,7.88,0,0,0-7.5-7.5A6.48,6.48,0,0,0,314.08,97a10.88,10.88,0,0,0-2.25,5.67H300.25a20.66,20.66,0,0,1,5.67-14,17.65,17.65,0,0,1,13.5-6,19.65,19.65,0,0,1,19.16,19.16v1.67A18.55,18.55,0,0,1,333,116.87Q338.58,122.71,338.58,131.87Z" style="fill:#f1802d"/></g></svg>