<svg xmlns="http://www.w3.org/2000/svg" viewBox="0 0 440 230"><g id="Capa_1" data-name="Capa 1"><rect width="440" height="230" style="fill:#123740"/></g><g id="Capa_2" data-name="Capa 2"><path d="M148.92,151H122.25a7.69,7.69,0,0,1-7.5-7.5V82.71h11.67v56.66h22.5Z" style="fill:#f1802d"/><path d="M181.17,151h-21.5a6.42,6.42,0,0,1-6.17-6.17V102.21A6.44,6.44,0,0,1,159.67,96h21.5v9.67h-18v13H174.5v9.66H163.17v13h18Z" style="fill:#f1802d"/><path d="M221.83,96l-13.75,49.08q-1.67,5.92-6.5,5.92t-6.5-5.92L181.33,96h10.13l10.12,36.14L211.71,96Z" style="fill:#f1802d"/><path d="M249.67,151h-21.5a6.42,6.42,0,0,1-6.17-6.17V102.21A6.44,6.44,0,0,1,228.17,96h21.5v9.67h-18v13H243v9.66H231.67v13h18Z" style="fill:#f1802d"/><path d="M284,151H262.5a6.42,6.42,0,0,1-6.17-6.17V96H266v45.33h18Z" style="fill:#f1802d"/><path d="M325.25,151H313.58V82.71h11.67Z" style="fill:#f1802d"/></g></svg>