<svg xmlns="http://www.w3.org/2000/svg" viewBox="0 0 440 230"><g id="Capa_1" data-name="Capa 1"><rect width="440" height="230" style="fill:#123740"/></g><g id="Capa_2" data-name="Capa 2"><path d="M135.58,151H108.92a7.69,7.69,0,0,1-7.5-7.5V82.71h11.66v56.66h22.5Z" style="fill:#f1802d"/><path d="M167.83,151h-21.5a6.4,6.4,0,0,1-6.16-6.17V102.21A6.42,6.42,0,0,1,146.33,96h21.5v9.67h-18v13h11.34v9.66H149.83v13h18Z" style="fill:#f1802d"/><path d="M208.5,96l-13.75,49.08q-1.67,5.92-6.5,5.92t-6.5-5.92L168,96h10.12l10.13,36.14L198.38,96Z" style="fill:#f1802d"/><path d="M236.33,151h-21.5a6.4,6.4,0,0,1-6.16-6.17V102.21A6.42,6.42,0,0,1,214.83,96h21.5v9.67h-18v13h11.34v9.66H218.33v13h18Z" style="fill:#f1802d"/><path d="M270.67,151h-21.5a6.4,6.4,0,0,1-6.17-6.17V96h9.67v45.33h18Z" style="fill:#f1802d"/><path d="M338.58,151H300.25V136a19.79,19.79,0,0,1,6.92-15.42q1.41-1.25,12.83-8.25,6.92-4.25,6.92-8.83v-1.67a7.86,7.86,0,0,0-7.48-7.5A6.6,6.6,0,0,0,314.12,97a11.87,11.87,0,0,0-2.24,5.67H300.25A22,22,0,0,1,306,88.79a17.43,17.43,0,0,1,13.47-6.08,19.64,19.64,0,0,1,19.12,19.16v1.67A19.65,19.65,0,0,1,331.67,119q-1.43,1.33-12.84,8.25-6.91,4.24-6.91,8.83v3.33h26.66Z" style="fill:#f1802d"/></g></svg>