<svg xmlns="http://www.w3.org/2000/svg" viewBox="0 0 928.24 535.88"><defs><style>.cls-1{font-size:343.81px;font-family:SFAtarianSystemBoldItalic, SF Atarian System;}.cls-1,.cls-2,.cls-3{fill:#f1802d;}.cls-2{font-size:255.72px;font-family:SFAtarianSystemBold, SF Atarian System;}.cls-4,.cls-5{fill:none;stroke:#f1802d;stroke-miterlimit:10;}.cls-4{stroke-width:5px;}.cls-5{stroke-width:3px;}</style></defs><g id="Capa_2" data-name="Capa 2"><text class="cls-1" transform="translate(4.81 287.94)">Boom</text><text class="cls-2" transform="translate(0.01 501.78)">Percussion</text></g><g id="Capa_4" data-name="Capa 4"><path class="cls-3" d="M1417,451.4s19.53,21-8,29.53l-1.14-.15a151.76,151.76,0,0,0,9.05-29.41Z" transform="translate(-496.98 -242.12)"/><path class="cls-3" d="M1395,337.47s28.65.59,15.59,26.34l-1.72.69a152.16,152.16,0,0,0-14.07-26.9Z" transform="translate(-496.98 -242.12)"/><path class="cls-3" d="M1355.57,545.83l.71,1s-.39,28.65-26.23,15.78l-3.47-.56A151.83,151.83,0,0,0,1355.57,545.83Z" transform="translate(-496.98 -242.12)"/><path class="cls-3" d="M1322,277.2l-.53,1.39a151.64,151.64,0,0,0-29.11-7.86l.29-1.72C1294.72,267.16,1313.89,251.14,1322,277.2Z" transform="translate(-496.98 -242.12)"/><path class="cls-3" d="M1243.9,572.27l-.24,1.55s-21,19.53-29.53-8l.4-1.06A151.42,151.42,0,0,0,1243.9,572.27Z" transform="translate(-496.98 -242.12)"/><path class="cls-3" d="M1203.24,281.48l.44,1a152.29,152.29,0,0,0-26,15.19C1177.73,293.5,1179.27,270.67,1203.24,281.48Z" transform="translate(-496.98 -242.12)"/><path class="cls-3" d="M1143.68,511.19c-3.72,0-27.26-.67-16.89-25.2l1.94-.12A152.08,152.08,0,0,0,1143.68,511.19Z" transform="translate(-496.98 -242.12)"/><path class="cls-3" d="M1122.07,371l.81.28a152.14,152.14,0,0,0-7,29.48l-1.81-.23S1094.5,379.51,1122.07,371Z" transform="translate(-496.98 -242.12)"/><path class="cls-4" d="M1408.9,364.5a152.72,152.72,0,1,1-294.44,56.85,155.88,155.88,0,0,1,1.38-20.64,152.6,152.6,0,0,1,151.31-132,153.83,153.83,0,0,1,25.19,2.07,151.64,151.64,0,0,1,29.11,7.86,153.21,153.21,0,0,1,87.45,85.91Z" transform="translate(-496.98 -242.12)"/><circle class="cls-4" cx="770.17" cy="180.47" r="124.13"/><path class="cls-5" d="M1292.45,269.17l.18-.16c2.09-1.85,21.26-17.87,29.35,8.19" transform="translate(-496.98 -242.12)"/><path class="cls-5" d="M1395,337.47s28.65.59,15.59,26.34" transform="translate(-496.98 -242.12)"/><path class="cls-5" d="M1417,451.4s19.53,21-8,29.53" transform="translate(-496.98 -242.12)"/><path class="cls-5" d="M1356.28,546.81s-.39,28.65-26.23,15.78" transform="translate(-496.98 -242.12)"/><path class="cls-5" d="M1243.66,573.82s-21,19.53-29.53-8" transform="translate(-496.98 -242.12)"/><path class="cls-5" d="M1144.17,511.18h-.49c-3.72,0-27.26-.67-16.89-25.2" transform="translate(-496.98 -242.12)"/><path class="cls-5" d="M1114,400.48s-19.53-21,8-29.53" transform="translate(-496.98 -242.12)"/><path class="cls-5" d="M1177.65,298.25s0-.22,0-.62c.07-4.13,1.61-27,25.58-16.15" transform="translate(-496.98 -242.12)"/><path class="cls-3" d="M1197.21,358.38l135.53,137.44s21.2,10.4,9.77-11.3L1206,351.76s-1.47,0-2.21-2.94c0,0-2.2-8.09-13.24-6.62,0,0-5.14,5.15,2.21,13.24C1192.8,355.44,1194.27,355.44,1197.21,358.38Z" transform="translate(-496.98 -242.12)"/><path class="cls-3" d="M1337.74,358.26,1202.21,495.69s-21.2,10.41-9.76-11.29l136.46-132.76s1.47,0,2.21-2.94c0,0,2.21-8.09,13.24-6.62,0,0,5.15,5.15-2.21,13.24C1342.15,355.32,1340.68,355.32,1337.74,358.26Z" transform="translate(-496.98 -242.12)"/></g></svg>