<svg xmlns="http://www.w3.org/2000/svg" viewBox="0 0 905.52 457.63"><g id="Capa_2" data-name="Capa 2"><path d="M655.93,351.28q0,35-32.09,57.87,27.51,14.61,27.51,47.56,0,28.95-24.5,52.58t-53.72,23.64H518.7a21.05,21.05,0,0,1-15.48-6.31,20.69,20.69,0,0,1-6.3-15.18,15.68,15.68,0,0,1,.57-4.3l32.09-183.37q2-10.31,11-18T560,298h40.11q22.92,0,39.4,15.33T655.93,351.28ZM610.67,463a21.19,21.19,0,0,0-6.3-15.33,20.41,20.41,0,0,0-15.16-6.45h-40l-9.32,51.57H580q11.46,0,21.07-9.31T610.67,463Zm4-103.16a21.2,21.2,0,0,0-6.29-15.32,20.45,20.45,0,0,0-15.16-6.44H567.51L556,400.52Q614.68,390.79,614.68,359.86Z" transform="translate(-496.92 -288.4)" style="fill:#f1802d"/><path d="M782.57,388.81a42.58,42.58,0,0,1-.86,8.31l-14.33,82.51q-3.72,21.21-22.63,37.25t-40.11,16A42.88,42.88,0,0,1,673,519.75a43.56,43.56,0,0,1-13-31.81,42.66,42.66,0,0,1,.86-8.31l14.33-82.51q3.72-20.91,22.63-37.1t40.11-16.19A42.88,42.88,0,0,1,769.53,357,43.59,43.59,0,0,1,782.57,388.81ZM748.76,394a16.53,16.53,0,0,0-16.65-16.68,23.33,23.33,0,0,0-15.36,5.93q-7,5.93-8.47,13.83L694,479.62a27.5,27.5,0,0,0-.2,3.11A16.53,16.53,0,0,0,710.4,499.4a23.32,23.32,0,0,0,15.36-5.92q7-5.93,8.47-13.83l14.33-82.52A27.19,27.19,0,0,0,748.76,394Z" transform="translate(-496.92 -288.4)" style="fill:#f1802d"/><path d="M897.74,388.81a41.83,41.83,0,0,1-.86,8.31l-14.32,82.51q-3.73,21.21-22.64,37.25t-40.11,16a42.88,42.88,0,0,1-31.66-13.18,43.59,43.59,0,0,1-13-31.81,41.9,41.9,0,0,1,.86-8.31l14.32-82.51Q794,376.21,812.94,360t40.11-16.19A42.92,42.92,0,0,1,884.71,357,43.58,43.58,0,0,1,897.74,388.81ZM863.93,394a16.53,16.53,0,0,0-16.65-16.68,23.35,23.35,0,0,0-15.36,5.93q-7,5.93-8.47,13.83l-14.32,82.51a25.49,25.49,0,0,0-.21,3.11,16.53,16.53,0,0,0,16.66,16.67,23.34,23.34,0,0,0,15.36-5.92q7-5.93,8.47-13.83l14.32-82.52A25.08,25.08,0,0,0,863.93,394Z" transform="translate(-496.92 -288.4)" style="fill:#f1802d"/><path d="M1078.24,361.59A21,21,0,0,1,1078,365l-29.5,167.9h-33.17l16-90.81-37.81,70.46q-10.89,20.35-24.64,20.35t-17.47-20.44l-13-70.82-16,91.26H889.14L918.65,365a25.71,25.71,0,0,1,8.41-14.75q7-6.45,15.25-6.45,13.11,0,16.82,20.38L979.3,472.87l58.31-108.67q10.88-20.37,24-20.37a15.42,15.42,0,0,1,11.87,5.16A18,18,0,0,1,1078.24,361.59Z" transform="translate(-496.92 -288.4)" style="fill:#f1802d"/><path d="M607.8,618.17q0,43.27-72.45,59.25V746H505.52V590.47a19.67,19.67,0,0,1,19.17-19.18h34.1q19.19,0,34.1,13.85T607.8,618.17ZM578,620.3a20.07,20.07,0,0,0-19.18-19.17H535.35v46.45Q578,640.34,578,620.3Z" transform="translate(-496.92 -288.4)" style="fill:#f1802d"/><path d="M695.6,746h-55a16.39,16.39,0,0,1-15.77-15.77V621.16a16.39,16.39,0,0,1,15.77-15.77h55v24.72h-46v33.24h29v24.72h-29v33.24h46Z" transform="translate(-496.92 -288.4)" style="fill:#f1802d"/><path d="M800.47,746h-28.8L742.9,700.86q-6.39-9.81-6.39-15.35,0-10,8.74-16.62l16.62-9.8q8.73-5.76,8.74-14.07a15.29,15.29,0,0,0-14.92-14.91H737.36V746H712.64V621.16a16.41,16.41,0,0,1,15.77-15.77h27.28q15.55,0,27.6,11.28t12,26.61a41.34,41.34,0,0,1-9.24,26.08,50,50,0,0,1-23,16.72Z" transform="translate(-496.92 -288.4)" style="fill:#f1802d"/><path d="M889.73,704.27a44.11,44.11,0,0,1-11.61,29.4,36.2,36.2,0,0,1-28,12.36q-15.76,0-27.7-11.93t-11.93-27.7V645q0-15.76,11.93-27.7t27.7-11.93a36.24,36.24,0,0,1,28,12.36,44.14,44.14,0,0,1,11.61,29.41H865.22q-2.13-17.05-15.13-17A15.28,15.28,0,0,0,835.18,645V706.4a15.28,15.28,0,0,0,14.91,14.91q13,0,15.13-17Z" transform="translate(-496.92 -288.4)" style="fill:#f1802d"/><path d="M986.05,706.4q0,15.76-11.93,27.7T946.41,746q-15.76,0-27.7-11.93t-11.93-27.7v-101H931.5v101a14.92,14.92,0,0,0,29.83,0v-101h24.72Z" transform="translate(-496.92 -288.4)" style="fill:#f1802d"/><path d="M1082.37,647.16h-24.51q-2.13-17.05-15.13-17a12.7,12.7,0,0,0-10.86,5.64,21.27,21.27,0,0,0-4,12.68,15.28,15.28,0,0,0,14.91,14.92,36.14,36.14,0,0,1,28.35,12.89,44.39,44.39,0,0,1,11.29,30.16q0,15.76-11.93,27.7T1042.73,746a36.18,36.18,0,0,1-28-12.36,44,44,0,0,1-11.61-29.4h24.5q2.13,17,15.13,17,6.82,0,11.09-6a20.64,20.64,0,0,0,3.83-12.36,15.29,15.29,0,0,0-14.92-14.92q-17,0-28.55-13.21A43.63,43.63,0,0,1,1003.1,645q0-15.76,11.93-27.7t27.7-11.93A36.94,36.94,0,0,1,1071.08,618,44.07,44.07,0,0,1,1082.37,647.16Z" transform="translate(-496.92 -288.4)" style="fill:#f1802d"/><path d="M1178.69,647.16h-24.51q-2.13-17.05-15.13-17a12.7,12.7,0,0,0-10.86,5.64,21.27,21.27,0,0,0-4,12.68,15.28,15.28,0,0,0,14.91,14.92,36.12,36.12,0,0,1,28.35,12.89,44.39,44.39,0,0,1,11.29,30.16q0,15.76-11.93,27.7T1139.05,746a36.18,36.18,0,0,1-28-12.36,44,44,0,0,1-11.61-29.4h24.5q2.13,17,15.13,17,6.83,0,11.09-6A20.64,20.64,0,0,0,1154,703a15.29,15.29,0,0,0-14.92-14.92q-17,0-28.55-13.21A43.63,43.63,0,0,1,1099.42,645q0-15.76,11.93-27.7t27.7-11.93A36.94,36.94,0,0,1,1167.4,618,44.07,44.07,0,0,1,1178.69,647.16Z" transform="translate(-496.92 -288.4)" style="fill:#f1802d"/><path d="M1220.46,746h-24.72V605.39h24.72Z" transform="translate(-496.92 -288.4)" style="fill:#f1802d"/><path d="M1311.45,706.4q0,15.76-11.93,27.7T1271.81,746q-15.76,0-27.7-11.93t-11.93-27.7V645q0-15.76,11.93-27.7t27.7-11.93q15.78,0,27.71,11.93t11.93,27.7Zm-24.72,0V645a14.92,14.92,0,0,0-29.83,0V706.4a14.92,14.92,0,0,0,29.83,0Z" transform="translate(-496.92 -288.4)" style="fill:#f1802d"/><path d="M1402.44,730.26a15.84,15.84,0,0,1-4.37,11,13.74,13.74,0,0,1-10.54,4.79q-9,0-15.14-14.91l-24.5-59.24V746h-24.72V621.16a15.83,15.83,0,0,1,4.38-11,13.82,13.82,0,0,1,10.57-4.79q9,0,15.17,14.88l24.43,59.06V605.39h24.72Z" transform="translate(-496.92 -288.4)" style="fill:#f1802d"/></g><g id="Capa_4" data-name="Capa 4"><path d="M1376.9,465s17.74,19-7.29,26.82l-1-.13a137.43,137.43,0,0,0,8.22-26.71Z" transform="translate(-496.92 -288.4)" style="fill:#f1802d"/><path d="M1357,361.54s26,.54,14.16,23.92l-1.57.63a138.33,138.33,0,0,0-12.77-24.43Z" transform="translate(-496.92 -288.4)" style="fill:#f1802d"/><path d="M1321.11,550.78l.64.89s-.35,26-23.82,14.33l-3.15-.51A138.28,138.28,0,0,0,1321.11,550.78Z" transform="translate(-496.92 -288.4)" style="fill:#f1802d"/><path d="M1290.6,306.8l-.49,1.26a137.31,137.31,0,0,0-26.43-7.13l.27-1.57C1265.84,297.68,1283.25,283.13,1290.6,306.8Z" transform="translate(-496.92 -288.4)" style="fill:#f1802d"/><path d="M1219.68,574.79l-.21,1.41s-19,17.74-26.82-7.31l.36-.95A137.88,137.88,0,0,0,1219.68,574.79Z" transform="translate(-496.92 -288.4)" style="fill:#f1802d"/><path d="M1182.76,310.69l.39.87a137.45,137.45,0,0,0-23.63,13.8C1159.59,321.6,1161,300.87,1182.76,310.69Z" transform="translate(-496.92 -288.4)" style="fill:#f1802d"/><path d="M1128.66,519.32c-3.38,0-24.75-.61-15.34-22.89l1.76-.11A138.62,138.62,0,0,0,1128.66,519.32Z" transform="translate(-496.92 -288.4)" style="fill:#f1802d"/><path d="M1109,391.94l.73.26a137.61,137.61,0,0,0-6.39,26.78l-1.65-.21S1084,399.72,1109,391.94Z" transform="translate(-496.92 -288.4)" style="fill:#f1802d"/><path d="M1369.54,386.09a139.05,139.05,0,1,1-12.77-24.43A138.24,138.24,0,0,1,1369.54,386.09Z" transform="translate(-496.92 -288.4)" style="fill:none;stroke:#f1802d;stroke-miterlimit:10;stroke-width:10px"/><circle cx="743.88" cy="150.44" r="112.74" style="fill:none;stroke:#f1802d;stroke-miterlimit:10;stroke-width:10px"/><path d="M1263.78,299.5l.17-.14c1.89-1.68,19.3-16.23,26.65,7.44" transform="translate(-496.92 -288.4)" style="fill:none;stroke:#f1802d;stroke-miterlimit:10;stroke-width:10px"/><path d="M1357,361.54s26,.54,14.16,23.92" transform="translate(-496.92 -288.4)" style="fill:none;stroke:#f1802d;stroke-miterlimit:10;stroke-width:10px"/><path d="M1376.9,465s17.74,19-7.29,26.82" transform="translate(-496.92 -288.4)" style="fill:none;stroke:#f1802d;stroke-miterlimit:10;stroke-width:10px"/><path d="M1321.75,551.67s-.35,26-23.82,14.33" transform="translate(-496.92 -288.4)" style="fill:none;stroke:#f1802d;stroke-miterlimit:10;stroke-width:10px"/><path d="M1219.47,576.2s-19,17.74-26.82-7.31" transform="translate(-496.92 -288.4)" style="fill:none;stroke:#f1802d;stroke-miterlimit:10;stroke-width:10px"/><path d="M1129.1,519.31h-.44c-3.38,0-24.75-.61-15.34-22.89" transform="translate(-496.92 -288.4)" style="fill:none;stroke:#f1802d;stroke-miterlimit:10;stroke-width:10px"/><path d="M1101.73,418.77s-17.73-19,7.31-26.83" transform="translate(-496.92 -288.4)" style="fill:none;stroke:#f1802d;stroke-miterlimit:10;stroke-width:10px"/><path d="M1159.51,325.92s0-.2,0-.56c.07-3.76,1.47-24.49,23.24-14.67" transform="translate(-496.92 -288.4)" style="fill:none;stroke:#f1802d;stroke-miterlimit:10;stroke-width:10px"/></g><g id="Capa_5" data-name="Capa 5"><path d="M1176.94,382l124.58,126.33s19.48,9.56,9-10.38l-125.44-122s-1.35,0-2-2.71c0,0-2-7.43-12.17-6.08,0,0-4.73,4.73,2,12.17C1172.88,379.25,1174.23,379.25,1176.94,382Z" transform="translate(-496.92 -288.4)" style="fill:#f1802d"/><path d="M1306.11,381.84,1181.53,508.16s-19.48,9.57-9-10.38l125.44-122s1.35,0,2-2.7c0,0,2-7.44,12.16-6.09,0,0,4.74,4.74-2,12.17C1310.17,379.13,1308.81,379.13,1306.11,381.84Z" transform="translate(-496.92 -288.4)" style="fill:#f1802d"/></g></svg>