<svg id="Capa_1" data-name="Capa 1" xmlns="http://www.w3.org/2000/svg" viewBox="0 0 113.05 113.64"><defs><style>.cls-1,.cls-3{fill:#f1802d;}.cls-2{fill:none;stroke:#f1802d;stroke-miterlimit:10;stroke-width:3px;}.cls-3{font-size:69.43px;font-family:SFAtarianSystemBold, SF Atarian System;}</style></defs><path class="cls-1" d="M116.69,74.55s6.8,7.29-2.79,10.27l-.4,0a52.55,52.55,0,0,0,3.15-10.23Z" transform="translate(-7.47 -7.33)"/><path class="cls-1" d="M109.05,34.92s10,.21,5.42,9.17l-.6.24A52.34,52.34,0,0,0,109,35Z" transform="translate(-7.47 -7.33)"/><path class="cls-1" d="M95.33,107.4l.24.34s-.14,10-9.12,5.49l-1.21-.2A52.64,52.64,0,0,0,95.33,107.4Z" transform="translate(-7.47 -7.33)"/><path class="cls-1" d="M83.64,14l-.18.48a52.9,52.9,0,0,0-10.13-2.73l.1-.6C74.16,10.47,80.82,4.9,83.64,14Z" transform="translate(-7.47 -7.33)"/><path class="cls-1" d="M56.48,116.6l-.08.53s-7.29,6.8-10.27-2.79l.14-.37A52.58,52.58,0,0,0,56.48,116.6Z" transform="translate(-7.47 -7.33)"/><path class="cls-1" d="M42.34,15.45l.15.33a53,53,0,0,0-9.05,5.29C33.46,19.63,34,11.69,42.34,15.45Z" transform="translate(-7.47 -7.33)"/><path class="cls-1" d="M21.62,95.35c-1.31,0-9.48-.24-5.88-8.76l.68,0A52.44,52.44,0,0,0,21.62,95.35Z" transform="translate(-7.47 -7.33)"/><path class="cls-1" d="M14.1,46.57l.29.1a52.84,52.84,0,0,0-2.45,10.25l-.63-.08S4.52,49.55,14.1,46.57Z" transform="translate(-7.47 -7.33)"/><path class="cls-2" d="M113.87,44.33a52.8,52.8,0,0,1,3.81,19.77,53.57,53.57,0,0,1-1,10.44,52.55,52.55,0,0,1-3.15,10.23A53.34,53.34,0,0,1,95.33,107.4a53,53,0,0,1-30.76,9.81,54,54,0,0,1-8.09-.61A52.58,52.58,0,0,1,46.27,114,53.27,53.27,0,0,1,21.62,95.35,52.92,52.92,0,0,1,11.46,64.1,53.06,53.06,0,0,1,64.57,11a53.84,53.84,0,0,1,8.76.72A52.88,52.88,0,0,1,109,35,52.34,52.34,0,0,1,113.87,44.33Z" transform="translate(-7.47 -7.33)"/><circle class="cls-2" cx="57.1" cy="57.2" r="43.18"/><path class="cls-2" d="M73.37,11.17a.28.28,0,0,1,.06-.06c.73-.64,7.39-6.21,10.21,2.85" transform="translate(-7.47 -7.33)"/><path class="cls-2" d="M109.05,34.92s10,.21,5.42,9.17" transform="translate(-7.47 -7.33)"/><path class="cls-2" d="M116.69,74.55s6.8,7.29-2.79,10.27" transform="translate(-7.47 -7.33)"/><path class="cls-2" d="M95.57,107.74s-.14,10-9.12,5.49" transform="translate(-7.47 -7.33)"/><path class="cls-2" d="M56.4,117.13s-7.29,6.8-10.27-2.79" transform="translate(-7.47 -7.33)"/><path class="cls-2" d="M21.79,95.35h-.17c-1.31,0-9.48-.24-5.88-8.76" transform="translate(-7.47 -7.33)"/><path class="cls-2" d="M11.31,56.84S4.52,49.55,14.1,46.57" transform="translate(-7.47 -7.33)"/><path class="cls-2" d="M33.43,21.28s0-.07,0-.21c0-1.44.56-9.38,8.9-5.62" transform="translate(-7.47 -7.33)"/><text class="cls-3" transform="translate(40.49 77.49)">2</text></svg>