<?xml version="1.0" standalone="no"?>
<!DOCTYPE svg PUBLIC "-//W3C//DTD SVG 20010904//EN"
 "http://www.w3.org/TR/2001/REC-SVG-20010904/DTD/svg10.dtd">
<svg version="1.0" xmlns="http://www.w3.org/2000/svg"
 width="475.000000pt" height="475.000000pt" viewBox="0 0 475.000000 475.000000"
 preserveAspectRatio="xMidYMid meet">
<metadata>
Created by potrace 1.14, written by Peter Selinger 2001-2017
</metadata>
<g transform="translate(0.000000,475.000000) scale(0.100000,-0.100000)"
fill="#000000" stroke="none">
<path d="M2940 4743 c-57 -9 -121 -36 -175 -74 -31 -21 -60 -37 -64 -35 -11 7
-224 20 -321 20 -84 0 -242 -10 -290 -18 -14 -3 -41 -7 -60 -10 -140 -21 -300
-64 -441 -117 l-105 -40 -56 19 c-84 30 -199 25 -256 -11 -72 -46 -117 -125
-136 -241 -3 -16 -9 -32 -13 -36 -4 -3 -44 -36 -88 -72 -274 -225 -528 -571
-650 -886 -28 -73 -30 -74 -89 -101 -77 -35 -119 -71 -154 -130 -53 -91 -30
-230 57 -340 27 -34 29 -41 24 -96 -12 -124 -4 -441 12 -505 2 -8 7 -35 10
-60 3 -25 8 -52 10 -60 2 -8 7 -31 10 -50 9 -56 63 -235 100 -334 l34 -91 -20
-60 c-66 -198 16 -347 215 -390 71 -15 96 -24 96 -35 0 -28 252 -287 375 -385
154 -123 432 -288 562 -333 26 -9 38 -23 61 -74 90 -199 257 -242 447 -116
l60 40 80 -8 c185 -18 453 -6 625 27 30 6 66 12 80 15 58 11 221 59 303 90
l88 34 37 -19 c126 -63 274 -46 346 40 51 60 71 112 90 237 1 7 39 41 83 77
235 188 450 454 591 732 51 101 61 114 92 124 49 16 136 76 160 109 65 92 68
184 10 300 -16 32 -34 62 -40 65 -10 6 -7 62 6 129 17 87 23 349 11 496 -10
126 -16 167 -43 287 -32 146 -30 137 -62 233 l-28 85 25 60 c49 122 38 239
-30 313 -32 35 -129 92 -158 92 -57 0 -90 22 -138 88 -210 295 -565 582 -901
728 -74 32 -76 34 -101 93 -58 136 -168 212 -281 194z m-297 -227 c289 -45
479 -102 697 -209 408 -201 744 -530 958 -937 73 -140 135 -306 176 -470 19
-80 38 -161 40 -180 16 -105 21 -182 21 -335 0 -154 -4 -225 -20 -339 -7 -47
-44 -216 -50 -226 -2 -4 -7 -21 -10 -38 -10 -59 -89 -256 -150 -377 -296 -582
-845 -1001 -1480 -1130 -166 -34 -254 -42 -435 -42 -140 -1 -186 3 -340 22
-74 10 -286 64 -374 96 -439 161 -784 425 -1055 807 -28 39 -51 74 -51 77 0 2
-15 28 -33 57 -111 174 -225 481 -262 703 -3 17 -7 41 -10 55 -30 142 -27 504
5 680 5 30 11 66 14 80 2 14 13 62 25 106 147 574 534 1068 1061 1356 223 122
546 223 780 244 41 3 77 8 79 10 5 4 378 -4 414 -10z"/>
<path d="M2347 4224 c-1 -1 -45 -4 -97 -8 -53 -3 -120 -10 -150 -16 -30 -5
-68 -12 -85 -15 -120 -20 -321 -90 -458 -159 -514 -260 -888 -750 -991 -1297
-29 -154 -32 -183 -35 -334 -5 -313 57 -593 194 -865 278 -552 785 -918 1400
-1011 156 -23 447 -20 575 6 14 3 39 8 55 11 159 29 373 105 508 181 33 18 61
33 63 33 9 0 90 56 179 122 368 274 614 663 712 1128 24 112 27 147 27 345 1
121 -2 240 -6 265 -19 120 -71 327 -100 397 -6 15 -12 30 -13 33 -24 71 -108
234 -170 330 -142 219 -316 395 -541 546 -286 192 -632 297 -1007 308 -32 0
-59 1 -60 0z m288 -144 c283 -40 560 -155 795 -329 103 -76 249 -219 318 -310
31 -42 59 -78 62 -81 16 -15 94 -146 129 -216 129 -260 185 -499 185 -784 0
-277 -49 -494 -168 -745 -113 -237 -252 -414 -481 -610 -65 -56 -227 -156
-336 -208 -415 -199 -886 -226 -1318 -74 -636 222 -1085 787 -1157 1455 -25
232 2 495 74 717 169 518 577 933 1093 1109 122 41 270 74 373 83 39 3 73 7
75 9 8 7 278 -5 356 -16z"/>
<path d="M2321 3616 c-18 -7 -47 -25 -63 -41 -59 -59 -62 -72 -62 -287 l-1
-197 31 -43 c63 -90 168 -114 257 -59 79 51 87 78 87 300 0 202 -5 228 -48
274 -53 56 -133 77 -201 53z m110 -125 c23 -19 24 -24 26 -183 1 -92 -3 -175
-9 -190 -17 -46 -75 -58 -113 -23 -25 24 -25 25 -25 193 0 156 2 171 21 196
25 31 66 34 100 7z"/>
<path d="M3475 3513 c-53 -9 -67 -16 -100 -44 -19 -17 -35 -38 -35 -46 0 -9
-47 -61 -104 -117 -57 -55 -238 -231 -402 -391 -163 -159 -326 -318 -361 -352
-34 -35 -66 -63 -70 -63 -8 0 -55 45 -514 491 -146 143 -297 289 -336 327 -38
37 -80 85 -92 107 -32 56 -63 76 -131 82 -53 5 -59 4 -70 -17 -27 -50 12 -170
60 -185 15 -5 223 -211 610 -605 94 -96 208 -212 253 -258 l82 -83 -132 -127
c-72 -70 -252 -245 -400 -388 -147 -144 -306 -299 -352 -343 -85 -83 -116
-131 -127 -201 -9 -56 8 -80 58 -80 92 0 113 14 283 186 88 89 306 309 484
489 l324 327 186 -190 c102 -105 318 -324 480 -487 308 -311 325 -324 412
-328 49 -2 69 17 69 64 0 76 -39 136 -166 258 -66 62 -244 235 -398 385 -153
149 -314 305 -357 347 -43 42 -80 81 -81 87 -4 13 900 930 934 948 35 18 69
75 73 123 5 60 -27 93 -80 84z"/>
<path d="M1352 2750 c-12 -12 -23 -24 -23 -28 -1 -4 -2 -131 -3 -282 -2 -285
2 -319 39 -334 33 -12 225 -6 258 8 70 30 118 101 119 175 0 47 -33 114 -72
143 -30 21 -30 22 -11 42 30 34 41 62 41 110 0 60 -12 89 -55 131 -44 43 -87
55 -191 55 -67 0 -84 -3 -102 -20z m216 -125 c12 -14 22 -34 22 -43 0 -41 -50
-82 -117 -97 l-33 -7 0 90 0 89 53 -3 c41 -2 57 -8 75 -29z m45 -297 c21 -25
16 -63 -12 -91 -13 -14 -35 -19 -87 -20 l-69 -2 -3 72 -3 72 48 3 c63 4 104
-7 126 -34z"/>
<path d="M3206 2729 c-48 -14 -95 -52 -119 -99 -23 -42 -24 -56 -25 -225 -1
-172 0 -182 23 -230 65 -134 234 -147 320 -26 l30 43 3 186 c4 211 -2 244 -53
297 -50 51 -119 72 -179 54z m96 -137 c23 -27 23 -33 22 -188 -2 -194 0 -176
-24 -202 -27 -28 -62 -28 -95 1 l-27 23 0 174 -1 174 27 23 c36 31 69 29 98
-5z"/>
<path d="M2171 1856 c-21 -23 -22 -28 -22 -302 0 -153 0 -294 0 -311 l1 -33
55 0 c45 0 55 3 56 18 1 9 1 82 1 162 l0 145 34 -90 c19 -49 45 -117 57 -150
28 -75 62 -99 104 -75 17 10 34 33 45 60 9 25 31 83 48 130 18 47 35 94 39
105 5 11 8 -45 9 -125 0 -80 1 -153 1 -162 1 -15 11 -18 56 -18 l55 0 1 108
c0 59 1 199 0 311 -1 196 -2 205 -23 228 -40 42 -87 26 -113 -39 -9 -24 -39
-104 -65 -178 -26 -74 -55 -153 -64 -175 l-18 -40 -18 50 c-10 28 -44 121 -75
207 -32 86 -66 166 -77 177 -25 28 -59 26 -87 -3z"/>
</g>
</svg>
